<mxfile host="Electron" modified="2024-05-21T02:34:30.568Z" agent="Mozilla/5.0 (Windows NT 10.0; Win64; x64) AppleWebKit/537.36 (KHTML, like Gecko) draw.io/24.4.0 Chrome/120.0.6099.109 Electron/28.1.0 Safari/537.36" etag="36KYrrYhZvz9B6diiMOx" version="24.4.0" type="device">
  <diagram name="Логическая модель (3 форма)" id="A9IYB4yKDmF_rZL8GnQB">
    <mxGraphModel dx="1434" dy="836" grid="1" gridSize="10" guides="1" tooltips="1" connect="1" arrows="1" fold="1" page="1" pageScale="1" pageWidth="827" pageHeight="1169" math="0" shadow="0">
      <root>
        <mxCell id="0" />
        <mxCell id="1" parent="0" />
        <mxCell id="5gc-EdMEgWUK1N-vsXEk-1" value="Пользователи" style="shape=table;startSize=30;container=1;collapsible=1;childLayout=tableLayout;fixedRows=1;rowLines=0;fontStyle=1;align=center;resizeLast=1;html=1;fillColor=#f8cecc;strokeColor=#b85450;" vertex="1" parent="1">
          <mxGeometry x="709" y="1750" width="180" height="300" as="geometry" />
        </mxCell>
        <mxCell id="5gc-EdMEgWUK1N-vsXEk-2" value="" style="shape=tableRow;horizontal=0;startSize=0;swimlaneHead=0;swimlaneBody=0;fillColor=none;collapsible=0;dropTarget=0;points=[[0,0.5],[1,0.5]];portConstraint=eastwest;top=0;left=0;right=0;bottom=1;" vertex="1" parent="5gc-EdMEgWUK1N-vsXEk-1">
          <mxGeometry y="30" width="180" height="30" as="geometry" />
        </mxCell>
        <mxCell id="5gc-EdMEgWUK1N-vsXEk-3" value="PK" style="shape=partialRectangle;connectable=0;fillColor=none;top=0;left=0;bottom=0;right=0;fontStyle=1;overflow=hidden;whiteSpace=wrap;html=1;" vertex="1" parent="5gc-EdMEgWUK1N-vsXEk-2">
          <mxGeometry width="30" height="30" as="geometry">
            <mxRectangle width="30" height="30" as="alternateBounds" />
          </mxGeometry>
        </mxCell>
        <mxCell id="5gc-EdMEgWUK1N-vsXEk-4" value="Код" style="shape=partialRectangle;connectable=0;fillColor=none;top=0;left=0;bottom=0;right=0;align=left;spacingLeft=6;fontStyle=5;overflow=hidden;whiteSpace=wrap;html=1;" vertex="1" parent="5gc-EdMEgWUK1N-vsXEk-2">
          <mxGeometry x="30" width="150" height="30" as="geometry">
            <mxRectangle width="150" height="30" as="alternateBounds" />
          </mxGeometry>
        </mxCell>
        <mxCell id="5gc-EdMEgWUK1N-vsXEk-5" value="" style="shape=tableRow;horizontal=0;startSize=0;swimlaneHead=0;swimlaneBody=0;fillColor=none;collapsible=0;dropTarget=0;points=[[0,0.5],[1,0.5]];portConstraint=eastwest;top=0;left=0;right=0;bottom=0;" vertex="1" parent="5gc-EdMEgWUK1N-vsXEk-1">
          <mxGeometry y="60" width="180" height="30" as="geometry" />
        </mxCell>
        <mxCell id="5gc-EdMEgWUK1N-vsXEk-6" value="" style="shape=partialRectangle;connectable=0;fillColor=none;top=0;left=0;bottom=0;right=0;editable=1;overflow=hidden;whiteSpace=wrap;html=1;" vertex="1" parent="5gc-EdMEgWUK1N-vsXEk-5">
          <mxGeometry width="30" height="30" as="geometry">
            <mxRectangle width="30" height="30" as="alternateBounds" />
          </mxGeometry>
        </mxCell>
        <mxCell id="5gc-EdMEgWUK1N-vsXEk-7" value="Фамилия" style="shape=partialRectangle;connectable=0;fillColor=none;top=0;left=0;bottom=0;right=0;align=left;spacingLeft=6;overflow=hidden;whiteSpace=wrap;html=1;" vertex="1" parent="5gc-EdMEgWUK1N-vsXEk-5">
          <mxGeometry x="30" width="150" height="30" as="geometry">
            <mxRectangle width="150" height="30" as="alternateBounds" />
          </mxGeometry>
        </mxCell>
        <mxCell id="5gc-EdMEgWUK1N-vsXEk-8" value="" style="shape=tableRow;horizontal=0;startSize=0;swimlaneHead=0;swimlaneBody=0;fillColor=none;collapsible=0;dropTarget=0;points=[[0,0.5],[1,0.5]];portConstraint=eastwest;top=0;left=0;right=0;bottom=0;" vertex="1" parent="5gc-EdMEgWUK1N-vsXEk-1">
          <mxGeometry y="90" width="180" height="30" as="geometry" />
        </mxCell>
        <mxCell id="5gc-EdMEgWUK1N-vsXEk-9" value="" style="shape=partialRectangle;connectable=0;fillColor=none;top=0;left=0;bottom=0;right=0;editable=1;overflow=hidden;whiteSpace=wrap;html=1;" vertex="1" parent="5gc-EdMEgWUK1N-vsXEk-8">
          <mxGeometry width="30" height="30" as="geometry">
            <mxRectangle width="30" height="30" as="alternateBounds" />
          </mxGeometry>
        </mxCell>
        <mxCell id="5gc-EdMEgWUK1N-vsXEk-10" value="Имя" style="shape=partialRectangle;connectable=0;fillColor=none;top=0;left=0;bottom=0;right=0;align=left;spacingLeft=6;overflow=hidden;whiteSpace=wrap;html=1;" vertex="1" parent="5gc-EdMEgWUK1N-vsXEk-8">
          <mxGeometry x="30" width="150" height="30" as="geometry">
            <mxRectangle width="150" height="30" as="alternateBounds" />
          </mxGeometry>
        </mxCell>
        <mxCell id="5gc-EdMEgWUK1N-vsXEk-11" value="" style="shape=tableRow;horizontal=0;startSize=0;swimlaneHead=0;swimlaneBody=0;fillColor=none;collapsible=0;dropTarget=0;points=[[0,0.5],[1,0.5]];portConstraint=eastwest;top=0;left=0;right=0;bottom=0;" vertex="1" parent="5gc-EdMEgWUK1N-vsXEk-1">
          <mxGeometry y="120" width="180" height="30" as="geometry" />
        </mxCell>
        <mxCell id="5gc-EdMEgWUK1N-vsXEk-12" value="" style="shape=partialRectangle;connectable=0;fillColor=none;top=0;left=0;bottom=0;right=0;editable=1;overflow=hidden;whiteSpace=wrap;html=1;" vertex="1" parent="5gc-EdMEgWUK1N-vsXEk-11">
          <mxGeometry width="30" height="30" as="geometry">
            <mxRectangle width="30" height="30" as="alternateBounds" />
          </mxGeometry>
        </mxCell>
        <mxCell id="5gc-EdMEgWUK1N-vsXEk-13" value="Отчество" style="shape=partialRectangle;connectable=0;fillColor=none;top=0;left=0;bottom=0;right=0;align=left;spacingLeft=6;overflow=hidden;whiteSpace=wrap;html=1;" vertex="1" parent="5gc-EdMEgWUK1N-vsXEk-11">
          <mxGeometry x="30" width="150" height="30" as="geometry">
            <mxRectangle width="150" height="30" as="alternateBounds" />
          </mxGeometry>
        </mxCell>
        <mxCell id="5gc-EdMEgWUK1N-vsXEk-14" value="" style="shape=tableRow;horizontal=0;startSize=0;swimlaneHead=0;swimlaneBody=0;fillColor=none;collapsible=0;dropTarget=0;points=[[0,0.5],[1,0.5]];portConstraint=eastwest;top=0;left=0;right=0;bottom=0;" vertex="1" parent="5gc-EdMEgWUK1N-vsXEk-1">
          <mxGeometry y="150" width="180" height="30" as="geometry" />
        </mxCell>
        <mxCell id="5gc-EdMEgWUK1N-vsXEk-15" value="" style="shape=partialRectangle;connectable=0;fillColor=none;top=0;left=0;bottom=0;right=0;editable=1;overflow=hidden;" vertex="1" parent="5gc-EdMEgWUK1N-vsXEk-14">
          <mxGeometry width="30" height="30" as="geometry">
            <mxRectangle width="30" height="30" as="alternateBounds" />
          </mxGeometry>
        </mxCell>
        <mxCell id="5gc-EdMEgWUK1N-vsXEk-16" value="Телефон" style="shape=partialRectangle;connectable=0;fillColor=none;top=0;left=0;bottom=0;right=0;align=left;spacingLeft=6;overflow=hidden;" vertex="1" parent="5gc-EdMEgWUK1N-vsXEk-14">
          <mxGeometry x="30" width="150" height="30" as="geometry">
            <mxRectangle width="150" height="30" as="alternateBounds" />
          </mxGeometry>
        </mxCell>
        <mxCell id="5gc-EdMEgWUK1N-vsXEk-17" value="" style="shape=tableRow;horizontal=0;startSize=0;swimlaneHead=0;swimlaneBody=0;fillColor=none;collapsible=0;dropTarget=0;points=[[0,0.5],[1,0.5]];portConstraint=eastwest;top=0;left=0;right=0;bottom=0;" vertex="1" parent="5gc-EdMEgWUK1N-vsXEk-1">
          <mxGeometry y="180" width="180" height="30" as="geometry" />
        </mxCell>
        <mxCell id="5gc-EdMEgWUK1N-vsXEk-18" value="FK" style="shape=partialRectangle;connectable=0;fillColor=none;top=0;left=0;bottom=0;right=0;editable=1;overflow=hidden;" vertex="1" parent="5gc-EdMEgWUK1N-vsXEk-17">
          <mxGeometry width="30" height="30" as="geometry">
            <mxRectangle width="30" height="30" as="alternateBounds" />
          </mxGeometry>
        </mxCell>
        <mxCell id="5gc-EdMEgWUK1N-vsXEk-19" value="Роль" style="shape=partialRectangle;connectable=0;fillColor=none;top=0;left=0;bottom=0;right=0;align=left;spacingLeft=6;overflow=hidden;" vertex="1" parent="5gc-EdMEgWUK1N-vsXEk-17">
          <mxGeometry x="30" width="150" height="30" as="geometry">
            <mxRectangle width="150" height="30" as="alternateBounds" />
          </mxGeometry>
        </mxCell>
        <mxCell id="5gc-EdMEgWUK1N-vsXEk-20" value="" style="shape=tableRow;horizontal=0;startSize=0;swimlaneHead=0;swimlaneBody=0;fillColor=none;collapsible=0;dropTarget=0;points=[[0,0.5],[1,0.5]];portConstraint=eastwest;top=0;left=0;right=0;bottom=0;" vertex="1" parent="5gc-EdMEgWUK1N-vsXEk-1">
          <mxGeometry y="210" width="180" height="30" as="geometry" />
        </mxCell>
        <mxCell id="5gc-EdMEgWUK1N-vsXEk-21" value="" style="shape=partialRectangle;connectable=0;fillColor=none;top=0;left=0;bottom=0;right=0;editable=1;overflow=hidden;" vertex="1" parent="5gc-EdMEgWUK1N-vsXEk-20">
          <mxGeometry width="30" height="30" as="geometry">
            <mxRectangle width="30" height="30" as="alternateBounds" />
          </mxGeometry>
        </mxCell>
        <mxCell id="5gc-EdMEgWUK1N-vsXEk-22" value="Логин" style="shape=partialRectangle;connectable=0;fillColor=none;top=0;left=0;bottom=0;right=0;align=left;spacingLeft=6;overflow=hidden;" vertex="1" parent="5gc-EdMEgWUK1N-vsXEk-20">
          <mxGeometry x="30" width="150" height="30" as="geometry">
            <mxRectangle width="150" height="30" as="alternateBounds" />
          </mxGeometry>
        </mxCell>
        <mxCell id="5gc-EdMEgWUK1N-vsXEk-23" value="" style="shape=tableRow;horizontal=0;startSize=0;swimlaneHead=0;swimlaneBody=0;fillColor=none;collapsible=0;dropTarget=0;points=[[0,0.5],[1,0.5]];portConstraint=eastwest;top=0;left=0;right=0;bottom=0;" vertex="1" parent="5gc-EdMEgWUK1N-vsXEk-1">
          <mxGeometry y="240" width="180" height="30" as="geometry" />
        </mxCell>
        <mxCell id="5gc-EdMEgWUK1N-vsXEk-24" value="" style="shape=partialRectangle;connectable=0;fillColor=none;top=0;left=0;bottom=0;right=0;editable=1;overflow=hidden;" vertex="1" parent="5gc-EdMEgWUK1N-vsXEk-23">
          <mxGeometry width="30" height="30" as="geometry">
            <mxRectangle width="30" height="30" as="alternateBounds" />
          </mxGeometry>
        </mxCell>
        <mxCell id="5gc-EdMEgWUK1N-vsXEk-25" value="Пароль" style="shape=partialRectangle;connectable=0;fillColor=none;top=0;left=0;bottom=0;right=0;align=left;spacingLeft=6;overflow=hidden;" vertex="1" parent="5gc-EdMEgWUK1N-vsXEk-23">
          <mxGeometry x="30" width="150" height="30" as="geometry">
            <mxRectangle width="150" height="30" as="alternateBounds" />
          </mxGeometry>
        </mxCell>
        <mxCell id="Sg8ZJet8d3fQl9INgD9I-1" style="shape=tableRow;horizontal=0;startSize=0;swimlaneHead=0;swimlaneBody=0;fillColor=none;collapsible=0;dropTarget=0;points=[[0,0.5],[1,0.5]];portConstraint=eastwest;top=0;left=0;right=0;bottom=0;" vertex="1" parent="5gc-EdMEgWUK1N-vsXEk-1">
          <mxGeometry y="270" width="180" height="30" as="geometry" />
        </mxCell>
        <mxCell id="Sg8ZJet8d3fQl9INgD9I-2" style="shape=partialRectangle;connectable=0;fillColor=none;top=0;left=0;bottom=0;right=0;editable=1;overflow=hidden;" vertex="1" parent="Sg8ZJet8d3fQl9INgD9I-1">
          <mxGeometry width="30" height="30" as="geometry">
            <mxRectangle width="30" height="30" as="alternateBounds" />
          </mxGeometry>
        </mxCell>
        <mxCell id="Sg8ZJet8d3fQl9INgD9I-3" value="Родетель" style="shape=partialRectangle;connectable=0;fillColor=none;top=0;left=0;bottom=0;right=0;align=left;spacingLeft=6;overflow=hidden;" vertex="1" parent="Sg8ZJet8d3fQl9INgD9I-1">
          <mxGeometry x="30" width="150" height="30" as="geometry">
            <mxRectangle width="150" height="30" as="alternateBounds" />
          </mxGeometry>
        </mxCell>
        <mxCell id="5gc-EdMEgWUK1N-vsXEk-26" value="Роли" style="shape=table;startSize=30;container=1;collapsible=1;childLayout=tableLayout;fixedRows=1;rowLines=0;fontStyle=1;align=center;resizeLast=1;html=1;fillColor=#f8cecc;strokeColor=#b85450;" vertex="1" parent="1">
          <mxGeometry x="490" y="1990" width="180" height="90" as="geometry" />
        </mxCell>
        <mxCell id="5gc-EdMEgWUK1N-vsXEk-27" value="" style="shape=tableRow;horizontal=0;startSize=0;swimlaneHead=0;swimlaneBody=0;fillColor=none;collapsible=0;dropTarget=0;points=[[0,0.5],[1,0.5]];portConstraint=eastwest;top=0;left=0;right=0;bottom=1;" vertex="1" parent="5gc-EdMEgWUK1N-vsXEk-26">
          <mxGeometry y="30" width="180" height="30" as="geometry" />
        </mxCell>
        <mxCell id="5gc-EdMEgWUK1N-vsXEk-28" value="PK" style="shape=partialRectangle;connectable=0;fillColor=none;top=0;left=0;bottom=0;right=0;fontStyle=1;overflow=hidden;whiteSpace=wrap;html=1;" vertex="1" parent="5gc-EdMEgWUK1N-vsXEk-27">
          <mxGeometry width="30" height="30" as="geometry">
            <mxRectangle width="30" height="30" as="alternateBounds" />
          </mxGeometry>
        </mxCell>
        <mxCell id="5gc-EdMEgWUK1N-vsXEk-29" value="Код" style="shape=partialRectangle;connectable=0;fillColor=none;top=0;left=0;bottom=0;right=0;align=left;spacingLeft=6;fontStyle=5;overflow=hidden;whiteSpace=wrap;html=1;" vertex="1" parent="5gc-EdMEgWUK1N-vsXEk-27">
          <mxGeometry x="30" width="150" height="30" as="geometry">
            <mxRectangle width="150" height="30" as="alternateBounds" />
          </mxGeometry>
        </mxCell>
        <mxCell id="5gc-EdMEgWUK1N-vsXEk-30" value="" style="shape=tableRow;horizontal=0;startSize=0;swimlaneHead=0;swimlaneBody=0;fillColor=none;collapsible=0;dropTarget=0;points=[[0,0.5],[1,0.5]];portConstraint=eastwest;top=0;left=0;right=0;bottom=0;" vertex="1" parent="5gc-EdMEgWUK1N-vsXEk-26">
          <mxGeometry y="60" width="180" height="30" as="geometry" />
        </mxCell>
        <mxCell id="5gc-EdMEgWUK1N-vsXEk-31" value="" style="shape=partialRectangle;connectable=0;fillColor=none;top=0;left=0;bottom=0;right=0;editable=1;overflow=hidden;whiteSpace=wrap;html=1;" vertex="1" parent="5gc-EdMEgWUK1N-vsXEk-30">
          <mxGeometry width="30" height="30" as="geometry">
            <mxRectangle width="30" height="30" as="alternateBounds" />
          </mxGeometry>
        </mxCell>
        <mxCell id="5gc-EdMEgWUK1N-vsXEk-32" value="Наименование" style="shape=partialRectangle;connectable=0;fillColor=none;top=0;left=0;bottom=0;right=0;align=left;spacingLeft=6;overflow=hidden;whiteSpace=wrap;html=1;" vertex="1" parent="5gc-EdMEgWUK1N-vsXEk-30">
          <mxGeometry x="30" width="150" height="30" as="geometry">
            <mxRectangle width="150" height="30" as="alternateBounds" />
          </mxGeometry>
        </mxCell>
        <mxCell id="5gc-EdMEgWUK1N-vsXEk-33" value="" style="edgeStyle=orthogonalEdgeStyle;fontSize=12;html=1;endArrow=ERoneToMany;rounded=0;exitX=1;exitY=0.5;exitDx=0;exitDy=0;entryX=0;entryY=0.5;entryDx=0;entryDy=0;" edge="1" parent="1" source="5gc-EdMEgWUK1N-vsXEk-27" target="5gc-EdMEgWUK1N-vsXEk-17">
          <mxGeometry width="100" height="100" relative="1" as="geometry">
            <mxPoint x="369" y="1840" as="sourcePoint" />
            <mxPoint x="469" y="1740" as="targetPoint" />
          </mxGeometry>
        </mxCell>
        <mxCell id="5gc-EdMEgWUK1N-vsXEk-34" value="Поставщики" style="shape=table;startSize=30;container=1;collapsible=1;childLayout=tableLayout;fixedRows=1;rowLines=0;fontStyle=1;align=center;resizeLast=1;html=1;fillColor=#f8cecc;strokeColor=#b85450;" vertex="1" parent="1">
          <mxGeometry x="1870" y="560" width="180" height="150" as="geometry" />
        </mxCell>
        <mxCell id="5gc-EdMEgWUK1N-vsXEk-35" value="" style="shape=tableRow;horizontal=0;startSize=0;swimlaneHead=0;swimlaneBody=0;fillColor=none;collapsible=0;dropTarget=0;points=[[0,0.5],[1,0.5]];portConstraint=eastwest;top=0;left=0;right=0;bottom=1;" vertex="1" parent="5gc-EdMEgWUK1N-vsXEk-34">
          <mxGeometry y="30" width="180" height="30" as="geometry" />
        </mxCell>
        <mxCell id="5gc-EdMEgWUK1N-vsXEk-36" value="PK" style="shape=partialRectangle;connectable=0;fillColor=none;top=0;left=0;bottom=0;right=0;fontStyle=1;overflow=hidden;whiteSpace=wrap;html=1;" vertex="1" parent="5gc-EdMEgWUK1N-vsXEk-35">
          <mxGeometry width="30" height="30" as="geometry">
            <mxRectangle width="30" height="30" as="alternateBounds" />
          </mxGeometry>
        </mxCell>
        <mxCell id="5gc-EdMEgWUK1N-vsXEk-37" value="Код" style="shape=partialRectangle;connectable=0;fillColor=none;top=0;left=0;bottom=0;right=0;align=left;spacingLeft=6;fontStyle=5;overflow=hidden;whiteSpace=wrap;html=1;" vertex="1" parent="5gc-EdMEgWUK1N-vsXEk-35">
          <mxGeometry x="30" width="150" height="30" as="geometry">
            <mxRectangle width="150" height="30" as="alternateBounds" />
          </mxGeometry>
        </mxCell>
        <mxCell id="5gc-EdMEgWUK1N-vsXEk-38" value="" style="shape=tableRow;horizontal=0;startSize=0;swimlaneHead=0;swimlaneBody=0;fillColor=none;collapsible=0;dropTarget=0;points=[[0,0.5],[1,0.5]];portConstraint=eastwest;top=0;left=0;right=0;bottom=0;" vertex="1" parent="5gc-EdMEgWUK1N-vsXEk-34">
          <mxGeometry y="60" width="180" height="30" as="geometry" />
        </mxCell>
        <mxCell id="5gc-EdMEgWUK1N-vsXEk-39" value="" style="shape=partialRectangle;connectable=0;fillColor=none;top=0;left=0;bottom=0;right=0;editable=1;overflow=hidden;whiteSpace=wrap;html=1;" vertex="1" parent="5gc-EdMEgWUK1N-vsXEk-38">
          <mxGeometry width="30" height="30" as="geometry">
            <mxRectangle width="30" height="30" as="alternateBounds" />
          </mxGeometry>
        </mxCell>
        <mxCell id="5gc-EdMEgWUK1N-vsXEk-40" value="Телефон" style="shape=partialRectangle;connectable=0;fillColor=none;top=0;left=0;bottom=0;right=0;align=left;spacingLeft=6;overflow=hidden;whiteSpace=wrap;html=1;" vertex="1" parent="5gc-EdMEgWUK1N-vsXEk-38">
          <mxGeometry x="30" width="150" height="30" as="geometry">
            <mxRectangle width="150" height="30" as="alternateBounds" />
          </mxGeometry>
        </mxCell>
        <mxCell id="5gc-EdMEgWUK1N-vsXEk-41" value="" style="shape=tableRow;horizontal=0;startSize=0;swimlaneHead=0;swimlaneBody=0;fillColor=none;collapsible=0;dropTarget=0;points=[[0,0.5],[1,0.5]];portConstraint=eastwest;top=0;left=0;right=0;bottom=0;" vertex="1" parent="5gc-EdMEgWUK1N-vsXEk-34">
          <mxGeometry y="90" width="180" height="30" as="geometry" />
        </mxCell>
        <mxCell id="5gc-EdMEgWUK1N-vsXEk-42" value="" style="shape=partialRectangle;connectable=0;fillColor=none;top=0;left=0;bottom=0;right=0;editable=1;overflow=hidden;whiteSpace=wrap;html=1;" vertex="1" parent="5gc-EdMEgWUK1N-vsXEk-41">
          <mxGeometry width="30" height="30" as="geometry">
            <mxRectangle width="30" height="30" as="alternateBounds" />
          </mxGeometry>
        </mxCell>
        <mxCell id="5gc-EdMEgWUK1N-vsXEk-43" value="Адрес" style="shape=partialRectangle;connectable=0;fillColor=none;top=0;left=0;bottom=0;right=0;align=left;spacingLeft=6;overflow=hidden;whiteSpace=wrap;html=1;" vertex="1" parent="5gc-EdMEgWUK1N-vsXEk-41">
          <mxGeometry x="30" width="150" height="30" as="geometry">
            <mxRectangle width="150" height="30" as="alternateBounds" />
          </mxGeometry>
        </mxCell>
        <mxCell id="5gc-EdMEgWUK1N-vsXEk-44" value="" style="shape=tableRow;horizontal=0;startSize=0;swimlaneHead=0;swimlaneBody=0;fillColor=none;collapsible=0;dropTarget=0;points=[[0,0.5],[1,0.5]];portConstraint=eastwest;top=0;left=0;right=0;bottom=0;" vertex="1" parent="5gc-EdMEgWUK1N-vsXEk-34">
          <mxGeometry y="120" width="180" height="30" as="geometry" />
        </mxCell>
        <mxCell id="5gc-EdMEgWUK1N-vsXEk-45" value="" style="shape=partialRectangle;connectable=0;fillColor=none;top=0;left=0;bottom=0;right=0;editable=1;overflow=hidden;whiteSpace=wrap;html=1;" vertex="1" parent="5gc-EdMEgWUK1N-vsXEk-44">
          <mxGeometry width="30" height="30" as="geometry">
            <mxRectangle width="30" height="30" as="alternateBounds" />
          </mxGeometry>
        </mxCell>
        <mxCell id="5gc-EdMEgWUK1N-vsXEk-46" value="ИНН" style="shape=partialRectangle;connectable=0;fillColor=none;top=0;left=0;bottom=0;right=0;align=left;spacingLeft=6;overflow=hidden;whiteSpace=wrap;html=1;" vertex="1" parent="5gc-EdMEgWUK1N-vsXEk-44">
          <mxGeometry x="30" width="150" height="30" as="geometry">
            <mxRectangle width="150" height="30" as="alternateBounds" />
          </mxGeometry>
        </mxCell>
        <mxCell id="5gc-EdMEgWUK1N-vsXEk-47" value="Тип оборудования" style="shape=table;startSize=30;container=1;collapsible=1;childLayout=tableLayout;fixedRows=1;rowLines=0;fontStyle=1;align=center;resizeLast=1;html=1;fillColor=#f8cecc;strokeColor=#b85450;" vertex="1" parent="1">
          <mxGeometry x="1359.92" y="2060" width="180" height="90" as="geometry" />
        </mxCell>
        <mxCell id="5gc-EdMEgWUK1N-vsXEk-48" value="" style="shape=tableRow;horizontal=0;startSize=0;swimlaneHead=0;swimlaneBody=0;fillColor=none;collapsible=0;dropTarget=0;points=[[0,0.5],[1,0.5]];portConstraint=eastwest;top=0;left=0;right=0;bottom=1;" vertex="1" parent="5gc-EdMEgWUK1N-vsXEk-47">
          <mxGeometry y="30" width="180" height="30" as="geometry" />
        </mxCell>
        <mxCell id="5gc-EdMEgWUK1N-vsXEk-49" value="PK" style="shape=partialRectangle;connectable=0;fillColor=none;top=0;left=0;bottom=0;right=0;fontStyle=1;overflow=hidden;whiteSpace=wrap;html=1;" vertex="1" parent="5gc-EdMEgWUK1N-vsXEk-48">
          <mxGeometry width="30" height="30" as="geometry">
            <mxRectangle width="30" height="30" as="alternateBounds" />
          </mxGeometry>
        </mxCell>
        <mxCell id="5gc-EdMEgWUK1N-vsXEk-50" value="Код" style="shape=partialRectangle;connectable=0;fillColor=none;top=0;left=0;bottom=0;right=0;align=left;spacingLeft=6;fontStyle=5;overflow=hidden;whiteSpace=wrap;html=1;" vertex="1" parent="5gc-EdMEgWUK1N-vsXEk-48">
          <mxGeometry x="30" width="150" height="30" as="geometry">
            <mxRectangle width="150" height="30" as="alternateBounds" />
          </mxGeometry>
        </mxCell>
        <mxCell id="5gc-EdMEgWUK1N-vsXEk-51" value="" style="shape=tableRow;horizontal=0;startSize=0;swimlaneHead=0;swimlaneBody=0;fillColor=none;collapsible=0;dropTarget=0;points=[[0,0.5],[1,0.5]];portConstraint=eastwest;top=0;left=0;right=0;bottom=0;" vertex="1" parent="5gc-EdMEgWUK1N-vsXEk-47">
          <mxGeometry y="60" width="180" height="30" as="geometry" />
        </mxCell>
        <mxCell id="5gc-EdMEgWUK1N-vsXEk-52" value="" style="shape=partialRectangle;connectable=0;fillColor=none;top=0;left=0;bottom=0;right=0;editable=1;overflow=hidden;whiteSpace=wrap;html=1;" vertex="1" parent="5gc-EdMEgWUK1N-vsXEk-51">
          <mxGeometry width="30" height="30" as="geometry">
            <mxRectangle width="30" height="30" as="alternateBounds" />
          </mxGeometry>
        </mxCell>
        <mxCell id="5gc-EdMEgWUK1N-vsXEk-53" value="Наименование" style="shape=partialRectangle;connectable=0;fillColor=none;top=0;left=0;bottom=0;right=0;align=left;spacingLeft=6;overflow=hidden;whiteSpace=wrap;html=1;" vertex="1" parent="5gc-EdMEgWUK1N-vsXEk-51">
          <mxGeometry x="30" width="150" height="30" as="geometry">
            <mxRectangle width="150" height="30" as="alternateBounds" />
          </mxGeometry>
        </mxCell>
        <mxCell id="5gc-EdMEgWUK1N-vsXEk-54" value="Комплектующие" style="shape=table;startSize=30;container=1;collapsible=1;childLayout=tableLayout;fixedRows=1;rowLines=0;fontStyle=1;align=center;resizeLast=1;html=1;fillColor=#f8cecc;strokeColor=#b85450;" vertex="1" parent="1">
          <mxGeometry x="1600" y="1040" width="180" height="150" as="geometry" />
        </mxCell>
        <mxCell id="5gc-EdMEgWUK1N-vsXEk-55" value="" style="shape=tableRow;horizontal=0;startSize=0;swimlaneHead=0;swimlaneBody=0;fillColor=none;collapsible=0;dropTarget=0;points=[[0,0.5],[1,0.5]];portConstraint=eastwest;top=0;left=0;right=0;bottom=1;" vertex="1" parent="5gc-EdMEgWUK1N-vsXEk-54">
          <mxGeometry y="30" width="180" height="30" as="geometry" />
        </mxCell>
        <mxCell id="5gc-EdMEgWUK1N-vsXEk-56" value="PK" style="shape=partialRectangle;connectable=0;fillColor=none;top=0;left=0;bottom=0;right=0;fontStyle=1;overflow=hidden;whiteSpace=wrap;html=1;" vertex="1" parent="5gc-EdMEgWUK1N-vsXEk-55">
          <mxGeometry width="30" height="30" as="geometry">
            <mxRectangle width="30" height="30" as="alternateBounds" />
          </mxGeometry>
        </mxCell>
        <mxCell id="5gc-EdMEgWUK1N-vsXEk-57" value="Код" style="shape=partialRectangle;connectable=0;fillColor=none;top=0;left=0;bottom=0;right=0;align=left;spacingLeft=6;fontStyle=5;overflow=hidden;whiteSpace=wrap;html=1;" vertex="1" parent="5gc-EdMEgWUK1N-vsXEk-55">
          <mxGeometry x="30" width="150" height="30" as="geometry">
            <mxRectangle width="150" height="30" as="alternateBounds" />
          </mxGeometry>
        </mxCell>
        <mxCell id="5gc-EdMEgWUK1N-vsXEk-58" value="" style="shape=tableRow;horizontal=0;startSize=0;swimlaneHead=0;swimlaneBody=0;fillColor=none;collapsible=0;dropTarget=0;points=[[0,0.5],[1,0.5]];portConstraint=eastwest;top=0;left=0;right=0;bottom=0;" vertex="1" parent="5gc-EdMEgWUK1N-vsXEk-54">
          <mxGeometry y="60" width="180" height="30" as="geometry" />
        </mxCell>
        <mxCell id="5gc-EdMEgWUK1N-vsXEk-59" value="" style="shape=partialRectangle;connectable=0;fillColor=none;top=0;left=0;bottom=0;right=0;editable=1;overflow=hidden;whiteSpace=wrap;html=1;" vertex="1" parent="5gc-EdMEgWUK1N-vsXEk-58">
          <mxGeometry width="30" height="30" as="geometry">
            <mxRectangle width="30" height="30" as="alternateBounds" />
          </mxGeometry>
        </mxCell>
        <mxCell id="5gc-EdMEgWUK1N-vsXEk-60" value="Наименование" style="shape=partialRectangle;connectable=0;fillColor=none;top=0;left=0;bottom=0;right=0;align=left;spacingLeft=6;overflow=hidden;whiteSpace=wrap;html=1;" vertex="1" parent="5gc-EdMEgWUK1N-vsXEk-58">
          <mxGeometry x="30" width="150" height="30" as="geometry">
            <mxRectangle width="150" height="30" as="alternateBounds" />
          </mxGeometry>
        </mxCell>
        <mxCell id="5gc-EdMEgWUK1N-vsXEk-61" value="" style="shape=tableRow;horizontal=0;startSize=0;swimlaneHead=0;swimlaneBody=0;fillColor=none;collapsible=0;dropTarget=0;points=[[0,0.5],[1,0.5]];portConstraint=eastwest;top=0;left=0;right=0;bottom=0;" vertex="1" parent="5gc-EdMEgWUK1N-vsXEk-54">
          <mxGeometry y="90" width="180" height="30" as="geometry" />
        </mxCell>
        <mxCell id="5gc-EdMEgWUK1N-vsXEk-62" value="" style="shape=partialRectangle;connectable=0;fillColor=none;top=0;left=0;bottom=0;right=0;editable=1;overflow=hidden;whiteSpace=wrap;html=1;" vertex="1" parent="5gc-EdMEgWUK1N-vsXEk-61">
          <mxGeometry width="30" height="30" as="geometry">
            <mxRectangle width="30" height="30" as="alternateBounds" />
          </mxGeometry>
        </mxCell>
        <mxCell id="5gc-EdMEgWUK1N-vsXEk-63" value="Описание" style="shape=partialRectangle;connectable=0;fillColor=none;top=0;left=0;bottom=0;right=0;align=left;spacingLeft=6;overflow=hidden;whiteSpace=wrap;html=1;" vertex="1" parent="5gc-EdMEgWUK1N-vsXEk-61">
          <mxGeometry x="30" width="150" height="30" as="geometry">
            <mxRectangle width="150" height="30" as="alternateBounds" />
          </mxGeometry>
        </mxCell>
        <mxCell id="5gc-EdMEgWUK1N-vsXEk-64" value="" style="shape=tableRow;horizontal=0;startSize=0;swimlaneHead=0;swimlaneBody=0;fillColor=none;collapsible=0;dropTarget=0;points=[[0,0.5],[1,0.5]];portConstraint=eastwest;top=0;left=0;right=0;bottom=0;" vertex="1" parent="5gc-EdMEgWUK1N-vsXEk-54">
          <mxGeometry y="120" width="180" height="30" as="geometry" />
        </mxCell>
        <mxCell id="5gc-EdMEgWUK1N-vsXEk-65" value="FK" style="shape=partialRectangle;connectable=0;fillColor=none;top=0;left=0;bottom=0;right=0;editable=1;overflow=hidden;whiteSpace=wrap;html=1;" vertex="1" parent="5gc-EdMEgWUK1N-vsXEk-64">
          <mxGeometry width="30" height="30" as="geometry">
            <mxRectangle width="30" height="30" as="alternateBounds" />
          </mxGeometry>
        </mxCell>
        <mxCell id="5gc-EdMEgWUK1N-vsXEk-66" value="Качество" style="shape=partialRectangle;connectable=0;fillColor=none;top=0;left=0;bottom=0;right=0;align=left;spacingLeft=6;overflow=hidden;whiteSpace=wrap;html=1;" vertex="1" parent="5gc-EdMEgWUK1N-vsXEk-64">
          <mxGeometry x="30" width="150" height="30" as="geometry">
            <mxRectangle width="150" height="30" as="alternateBounds" />
          </mxGeometry>
        </mxCell>
        <mxCell id="5gc-EdMEgWUK1N-vsXEk-67" value="Категория качества" style="shape=table;startSize=30;container=1;collapsible=1;childLayout=tableLayout;fixedRows=1;rowLines=0;fontStyle=1;align=center;resizeLast=1;html=1;fillColor=#f8cecc;strokeColor=#b85450;" vertex="1" parent="1">
          <mxGeometry x="1900" y="1120" width="180" height="90" as="geometry" />
        </mxCell>
        <mxCell id="5gc-EdMEgWUK1N-vsXEk-68" value="" style="shape=tableRow;horizontal=0;startSize=0;swimlaneHead=0;swimlaneBody=0;fillColor=none;collapsible=0;dropTarget=0;points=[[0,0.5],[1,0.5]];portConstraint=eastwest;top=0;left=0;right=0;bottom=1;" vertex="1" parent="5gc-EdMEgWUK1N-vsXEk-67">
          <mxGeometry y="30" width="180" height="30" as="geometry" />
        </mxCell>
        <mxCell id="5gc-EdMEgWUK1N-vsXEk-69" value="PK" style="shape=partialRectangle;connectable=0;fillColor=none;top=0;left=0;bottom=0;right=0;fontStyle=1;overflow=hidden;whiteSpace=wrap;html=1;" vertex="1" parent="5gc-EdMEgWUK1N-vsXEk-68">
          <mxGeometry width="30" height="30" as="geometry">
            <mxRectangle width="30" height="30" as="alternateBounds" />
          </mxGeometry>
        </mxCell>
        <mxCell id="5gc-EdMEgWUK1N-vsXEk-70" value="Код" style="shape=partialRectangle;connectable=0;fillColor=none;top=0;left=0;bottom=0;right=0;align=left;spacingLeft=6;fontStyle=5;overflow=hidden;whiteSpace=wrap;html=1;" vertex="1" parent="5gc-EdMEgWUK1N-vsXEk-68">
          <mxGeometry x="30" width="150" height="30" as="geometry">
            <mxRectangle width="150" height="30" as="alternateBounds" />
          </mxGeometry>
        </mxCell>
        <mxCell id="5gc-EdMEgWUK1N-vsXEk-71" value="" style="shape=tableRow;horizontal=0;startSize=0;swimlaneHead=0;swimlaneBody=0;fillColor=none;collapsible=0;dropTarget=0;points=[[0,0.5],[1,0.5]];portConstraint=eastwest;top=0;left=0;right=0;bottom=0;" vertex="1" parent="5gc-EdMEgWUK1N-vsXEk-67">
          <mxGeometry y="60" width="180" height="30" as="geometry" />
        </mxCell>
        <mxCell id="5gc-EdMEgWUK1N-vsXEk-72" value="" style="shape=partialRectangle;connectable=0;fillColor=none;top=0;left=0;bottom=0;right=0;editable=1;overflow=hidden;whiteSpace=wrap;html=1;" vertex="1" parent="5gc-EdMEgWUK1N-vsXEk-71">
          <mxGeometry width="30" height="30" as="geometry">
            <mxRectangle width="30" height="30" as="alternateBounds" />
          </mxGeometry>
        </mxCell>
        <mxCell id="5gc-EdMEgWUK1N-vsXEk-73" value="Наименование" style="shape=partialRectangle;connectable=0;fillColor=none;top=0;left=0;bottom=0;right=0;align=left;spacingLeft=6;overflow=hidden;whiteSpace=wrap;html=1;" vertex="1" parent="5gc-EdMEgWUK1N-vsXEk-71">
          <mxGeometry x="30" width="150" height="30" as="geometry">
            <mxRectangle width="150" height="30" as="alternateBounds" />
          </mxGeometry>
        </mxCell>
        <mxCell id="5gc-EdMEgWUK1N-vsXEk-74" value="" style="edgeStyle=orthogonalEdgeStyle;fontSize=12;html=1;endArrow=ERoneToMany;rounded=0;exitX=0;exitY=0.5;exitDx=0;exitDy=0;entryX=1;entryY=0.5;entryDx=0;entryDy=0;" edge="1" parent="1" source="5gc-EdMEgWUK1N-vsXEk-68" target="5gc-EdMEgWUK1N-vsXEk-64">
          <mxGeometry width="100" height="100" relative="1" as="geometry">
            <mxPoint x="1920" y="1390" as="sourcePoint" />
            <mxPoint x="2020" y="1290" as="targetPoint" />
          </mxGeometry>
        </mxCell>
        <mxCell id="5gc-EdMEgWUK1N-vsXEk-75" value="Услуги" style="shape=table;startSize=30;container=1;collapsible=1;childLayout=tableLayout;fixedRows=1;rowLines=0;fontStyle=1;align=center;resizeLast=1;html=1;fillColor=#f8cecc;strokeColor=#b85450;" vertex="1" parent="1">
          <mxGeometry x="1750" y="2130" width="180" height="90" as="geometry" />
        </mxCell>
        <mxCell id="5gc-EdMEgWUK1N-vsXEk-76" value="" style="shape=tableRow;horizontal=0;startSize=0;swimlaneHead=0;swimlaneBody=0;fillColor=none;collapsible=0;dropTarget=0;points=[[0,0.5],[1,0.5]];portConstraint=eastwest;top=0;left=0;right=0;bottom=1;" vertex="1" parent="5gc-EdMEgWUK1N-vsXEk-75">
          <mxGeometry y="30" width="180" height="30" as="geometry" />
        </mxCell>
        <mxCell id="5gc-EdMEgWUK1N-vsXEk-77" value="PK" style="shape=partialRectangle;connectable=0;fillColor=none;top=0;left=0;bottom=0;right=0;fontStyle=1;overflow=hidden;whiteSpace=wrap;html=1;" vertex="1" parent="5gc-EdMEgWUK1N-vsXEk-76">
          <mxGeometry width="30" height="30" as="geometry">
            <mxRectangle width="30" height="30" as="alternateBounds" />
          </mxGeometry>
        </mxCell>
        <mxCell id="5gc-EdMEgWUK1N-vsXEk-78" value="Код" style="shape=partialRectangle;connectable=0;fillColor=none;top=0;left=0;bottom=0;right=0;align=left;spacingLeft=6;fontStyle=5;overflow=hidden;whiteSpace=wrap;html=1;" vertex="1" parent="5gc-EdMEgWUK1N-vsXEk-76">
          <mxGeometry x="30" width="150" height="30" as="geometry">
            <mxRectangle width="150" height="30" as="alternateBounds" />
          </mxGeometry>
        </mxCell>
        <mxCell id="5gc-EdMEgWUK1N-vsXEk-79" value="" style="shape=tableRow;horizontal=0;startSize=0;swimlaneHead=0;swimlaneBody=0;fillColor=none;collapsible=0;dropTarget=0;points=[[0,0.5],[1,0.5]];portConstraint=eastwest;top=0;left=0;right=0;bottom=0;" vertex="1" parent="5gc-EdMEgWUK1N-vsXEk-75">
          <mxGeometry y="60" width="180" height="30" as="geometry" />
        </mxCell>
        <mxCell id="5gc-EdMEgWUK1N-vsXEk-80" value="" style="shape=partialRectangle;connectable=0;fillColor=none;top=0;left=0;bottom=0;right=0;editable=1;overflow=hidden;whiteSpace=wrap;html=1;" vertex="1" parent="5gc-EdMEgWUK1N-vsXEk-79">
          <mxGeometry width="30" height="30" as="geometry">
            <mxRectangle width="30" height="30" as="alternateBounds" />
          </mxGeometry>
        </mxCell>
        <mxCell id="5gc-EdMEgWUK1N-vsXEk-81" value="Наименование" style="shape=partialRectangle;connectable=0;fillColor=none;top=0;left=0;bottom=0;right=0;align=left;spacingLeft=6;overflow=hidden;whiteSpace=wrap;html=1;" vertex="1" parent="5gc-EdMEgWUK1N-vsXEk-79">
          <mxGeometry x="30" width="150" height="30" as="geometry">
            <mxRectangle width="150" height="30" as="alternateBounds" />
          </mxGeometry>
        </mxCell>
        <mxCell id="5gc-EdMEgWUK1N-vsXEk-82" value="ЗаявкиНаРемонт" style="shape=table;startSize=30;container=1;collapsible=1;childLayout=tableLayout;fixedRows=1;rowLines=0;fontStyle=1;align=center;resizeLast=1;html=1;fillColor=#f8cecc;strokeColor=#b85450;" vertex="1" parent="1">
          <mxGeometry x="1050" y="1630" width="180" height="300" as="geometry" />
        </mxCell>
        <mxCell id="5gc-EdMEgWUK1N-vsXEk-83" value="" style="shape=tableRow;horizontal=0;startSize=0;swimlaneHead=0;swimlaneBody=0;fillColor=none;collapsible=0;dropTarget=0;points=[[0,0.5],[1,0.5]];portConstraint=eastwest;top=0;left=0;right=0;bottom=1;" vertex="1" parent="5gc-EdMEgWUK1N-vsXEk-82">
          <mxGeometry y="30" width="180" height="30" as="geometry" />
        </mxCell>
        <mxCell id="5gc-EdMEgWUK1N-vsXEk-84" value="PK" style="shape=partialRectangle;connectable=0;fillColor=none;top=0;left=0;bottom=0;right=0;fontStyle=1;overflow=hidden;whiteSpace=wrap;html=1;" vertex="1" parent="5gc-EdMEgWUK1N-vsXEk-83">
          <mxGeometry width="30" height="30" as="geometry">
            <mxRectangle width="30" height="30" as="alternateBounds" />
          </mxGeometry>
        </mxCell>
        <mxCell id="5gc-EdMEgWUK1N-vsXEk-85" value="Номер" style="shape=partialRectangle;connectable=0;fillColor=none;top=0;left=0;bottom=0;right=0;align=left;spacingLeft=6;fontStyle=5;overflow=hidden;whiteSpace=wrap;html=1;" vertex="1" parent="5gc-EdMEgWUK1N-vsXEk-83">
          <mxGeometry x="30" width="150" height="30" as="geometry">
            <mxRectangle width="150" height="30" as="alternateBounds" />
          </mxGeometry>
        </mxCell>
        <mxCell id="5gc-EdMEgWUK1N-vsXEk-86" value="" style="shape=tableRow;horizontal=0;startSize=0;swimlaneHead=0;swimlaneBody=0;fillColor=none;collapsible=0;dropTarget=0;points=[[0,0.5],[1,0.5]];portConstraint=eastwest;top=0;left=0;right=0;bottom=0;" vertex="1" parent="5gc-EdMEgWUK1N-vsXEk-82">
          <mxGeometry y="60" width="180" height="30" as="geometry" />
        </mxCell>
        <mxCell id="5gc-EdMEgWUK1N-vsXEk-87" value="" style="shape=partialRectangle;connectable=0;fillColor=none;top=0;left=0;bottom=0;right=0;editable=1;overflow=hidden;whiteSpace=wrap;html=1;" vertex="1" parent="5gc-EdMEgWUK1N-vsXEk-86">
          <mxGeometry width="30" height="30" as="geometry">
            <mxRectangle width="30" height="30" as="alternateBounds" />
          </mxGeometry>
        </mxCell>
        <mxCell id="5gc-EdMEgWUK1N-vsXEk-88" value="Дата" style="shape=partialRectangle;connectable=0;fillColor=none;top=0;left=0;bottom=0;right=0;align=left;spacingLeft=6;overflow=hidden;whiteSpace=wrap;html=1;" vertex="1" parent="5gc-EdMEgWUK1N-vsXEk-86">
          <mxGeometry x="30" width="150" height="30" as="geometry">
            <mxRectangle width="150" height="30" as="alternateBounds" />
          </mxGeometry>
        </mxCell>
        <mxCell id="5gc-EdMEgWUK1N-vsXEk-89" value="" style="shape=tableRow;horizontal=0;startSize=0;swimlaneHead=0;swimlaneBody=0;fillColor=none;collapsible=0;dropTarget=0;points=[[0,0.5],[1,0.5]];portConstraint=eastwest;top=0;left=0;right=0;bottom=0;" vertex="1" parent="5gc-EdMEgWUK1N-vsXEk-82">
          <mxGeometry y="90" width="180" height="30" as="geometry" />
        </mxCell>
        <mxCell id="5gc-EdMEgWUK1N-vsXEk-90" value="FK" style="shape=partialRectangle;connectable=0;fillColor=none;top=0;left=0;bottom=0;right=0;editable=1;overflow=hidden;whiteSpace=wrap;html=1;" vertex="1" parent="5gc-EdMEgWUK1N-vsXEk-89">
          <mxGeometry width="30" height="30" as="geometry">
            <mxRectangle width="30" height="30" as="alternateBounds" />
          </mxGeometry>
        </mxCell>
        <mxCell id="5gc-EdMEgWUK1N-vsXEk-91" value="Клиент" style="shape=partialRectangle;connectable=0;fillColor=none;top=0;left=0;bottom=0;right=0;align=left;spacingLeft=6;overflow=hidden;whiteSpace=wrap;html=1;" vertex="1" parent="5gc-EdMEgWUK1N-vsXEk-89">
          <mxGeometry x="30" width="150" height="30" as="geometry">
            <mxRectangle width="150" height="30" as="alternateBounds" />
          </mxGeometry>
        </mxCell>
        <mxCell id="5gc-EdMEgWUK1N-vsXEk-92" value="" style="shape=tableRow;horizontal=0;startSize=0;swimlaneHead=0;swimlaneBody=0;fillColor=none;collapsible=0;dropTarget=0;points=[[0,0.5],[1,0.5]];portConstraint=eastwest;top=0;left=0;right=0;bottom=0;" vertex="1" parent="5gc-EdMEgWUK1N-vsXEk-82">
          <mxGeometry y="120" width="180" height="30" as="geometry" />
        </mxCell>
        <mxCell id="5gc-EdMEgWUK1N-vsXEk-93" value="FK" style="shape=partialRectangle;connectable=0;fillColor=none;top=0;left=0;bottom=0;right=0;editable=1;overflow=hidden;whiteSpace=wrap;html=1;" vertex="1" parent="5gc-EdMEgWUK1N-vsXEk-92">
          <mxGeometry width="30" height="30" as="geometry">
            <mxRectangle width="30" height="30" as="alternateBounds" />
          </mxGeometry>
        </mxCell>
        <mxCell id="5gc-EdMEgWUK1N-vsXEk-94" value="Сотрудник" style="shape=partialRectangle;connectable=0;fillColor=none;top=0;left=0;bottom=0;right=0;align=left;spacingLeft=6;overflow=hidden;whiteSpace=wrap;html=1;" vertex="1" parent="5gc-EdMEgWUK1N-vsXEk-92">
          <mxGeometry x="30" width="150" height="30" as="geometry">
            <mxRectangle width="150" height="30" as="alternateBounds" />
          </mxGeometry>
        </mxCell>
        <mxCell id="5gc-EdMEgWUK1N-vsXEk-95" value="" style="shape=tableRow;horizontal=0;startSize=0;swimlaneHead=0;swimlaneBody=0;fillColor=none;collapsible=0;dropTarget=0;points=[[0,0.5],[1,0.5]];portConstraint=eastwest;top=0;left=0;right=0;bottom=0;" vertex="1" parent="5gc-EdMEgWUK1N-vsXEk-82">
          <mxGeometry y="150" width="180" height="30" as="geometry" />
        </mxCell>
        <mxCell id="5gc-EdMEgWUK1N-vsXEk-96" value="FK" style="shape=partialRectangle;connectable=0;fillColor=none;top=0;left=0;bottom=0;right=0;editable=1;overflow=hidden;" vertex="1" parent="5gc-EdMEgWUK1N-vsXEk-95">
          <mxGeometry width="30" height="30" as="geometry">
            <mxRectangle width="30" height="30" as="alternateBounds" />
          </mxGeometry>
        </mxCell>
        <mxCell id="5gc-EdMEgWUK1N-vsXEk-97" value="СтатусЗаявки" style="shape=partialRectangle;connectable=0;fillColor=none;top=0;left=0;bottom=0;right=0;align=left;spacingLeft=6;overflow=hidden;" vertex="1" parent="5gc-EdMEgWUK1N-vsXEk-95">
          <mxGeometry x="30" width="150" height="30" as="geometry">
            <mxRectangle width="150" height="30" as="alternateBounds" />
          </mxGeometry>
        </mxCell>
        <mxCell id="5gc-EdMEgWUK1N-vsXEk-98" value="" style="shape=tableRow;horizontal=0;startSize=0;swimlaneHead=0;swimlaneBody=0;fillColor=none;collapsible=0;dropTarget=0;points=[[0,0.5],[1,0.5]];portConstraint=eastwest;top=0;left=0;right=0;bottom=0;" vertex="1" parent="5gc-EdMEgWUK1N-vsXEk-82">
          <mxGeometry y="180" width="180" height="30" as="geometry" />
        </mxCell>
        <mxCell id="5gc-EdMEgWUK1N-vsXEk-99" value="FK" style="shape=partialRectangle;connectable=0;fillColor=none;top=0;left=0;bottom=0;right=0;editable=1;overflow=hidden;" vertex="1" parent="5gc-EdMEgWUK1N-vsXEk-98">
          <mxGeometry width="30" height="30" as="geometry">
            <mxRectangle width="30" height="30" as="alternateBounds" />
          </mxGeometry>
        </mxCell>
        <mxCell id="5gc-EdMEgWUK1N-vsXEk-100" value="ТипОборудования" style="shape=partialRectangle;connectable=0;fillColor=none;top=0;left=0;bottom=0;right=0;align=left;spacingLeft=6;overflow=hidden;" vertex="1" parent="5gc-EdMEgWUK1N-vsXEk-98">
          <mxGeometry x="30" width="150" height="30" as="geometry">
            <mxRectangle width="150" height="30" as="alternateBounds" />
          </mxGeometry>
        </mxCell>
        <mxCell id="5gc-EdMEgWUK1N-vsXEk-101" value="" style="shape=tableRow;horizontal=0;startSize=0;swimlaneHead=0;swimlaneBody=0;fillColor=none;collapsible=0;dropTarget=0;points=[[0,0.5],[1,0.5]];portConstraint=eastwest;top=0;left=0;right=0;bottom=0;" vertex="1" parent="5gc-EdMEgWUK1N-vsXEk-82">
          <mxGeometry y="210" width="180" height="30" as="geometry" />
        </mxCell>
        <mxCell id="5gc-EdMEgWUK1N-vsXEk-102" value="" style="shape=partialRectangle;connectable=0;fillColor=none;top=0;left=0;bottom=0;right=0;editable=1;overflow=hidden;" vertex="1" parent="5gc-EdMEgWUK1N-vsXEk-101">
          <mxGeometry width="30" height="30" as="geometry">
            <mxRectangle width="30" height="30" as="alternateBounds" />
          </mxGeometry>
        </mxCell>
        <mxCell id="5gc-EdMEgWUK1N-vsXEk-103" value="МодельОборудования" style="shape=partialRectangle;connectable=0;fillColor=none;top=0;left=0;bottom=0;right=0;align=left;spacingLeft=6;overflow=hidden;" vertex="1" parent="5gc-EdMEgWUK1N-vsXEk-101">
          <mxGeometry x="30" width="150" height="30" as="geometry">
            <mxRectangle width="150" height="30" as="alternateBounds" />
          </mxGeometry>
        </mxCell>
        <mxCell id="5gc-EdMEgWUK1N-vsXEk-104" style="shape=tableRow;horizontal=0;startSize=0;swimlaneHead=0;swimlaneBody=0;fillColor=#fff2cc;collapsible=0;dropTarget=0;points=[[0,0.5],[1,0.5]];portConstraint=eastwest;top=0;left=0;right=0;bottom=0;strokeColor=#d6b656;" vertex="1" parent="5gc-EdMEgWUK1N-vsXEk-82">
          <mxGeometry y="240" width="180" height="30" as="geometry" />
        </mxCell>
        <mxCell id="5gc-EdMEgWUK1N-vsXEk-105" style="shape=partialRectangle;connectable=0;fillColor=none;top=0;left=0;bottom=0;right=0;editable=1;overflow=hidden;" vertex="1" parent="5gc-EdMEgWUK1N-vsXEk-104">
          <mxGeometry width="30" height="30" as="geometry">
            <mxRectangle width="30" height="30" as="alternateBounds" />
          </mxGeometry>
        </mxCell>
        <mxCell id="5gc-EdMEgWUK1N-vsXEk-106" value="Табличная часть" style="shape=partialRectangle;connectable=0;fillColor=none;top=0;left=0;bottom=0;right=0;align=left;spacingLeft=6;overflow=hidden;" vertex="1" parent="5gc-EdMEgWUK1N-vsXEk-104">
          <mxGeometry x="30" width="150" height="30" as="geometry">
            <mxRectangle width="150" height="30" as="alternateBounds" />
          </mxGeometry>
        </mxCell>
        <mxCell id="5gc-EdMEgWUK1N-vsXEk-107" style="shape=tableRow;horizontal=0;startSize=0;swimlaneHead=0;swimlaneBody=0;collapsible=0;dropTarget=0;points=[[0,0.5],[1,0.5]];portConstraint=eastwest;top=0;left=0;right=0;bottom=0;fillColor=none;" vertex="1" parent="5gc-EdMEgWUK1N-vsXEk-82">
          <mxGeometry y="270" width="180" height="30" as="geometry" />
        </mxCell>
        <mxCell id="5gc-EdMEgWUK1N-vsXEk-108" style="shape=partialRectangle;connectable=0;fillColor=none;top=0;left=0;bottom=0;right=0;editable=1;overflow=hidden;" vertex="1" parent="5gc-EdMEgWUK1N-vsXEk-107">
          <mxGeometry width="30" height="30" as="geometry">
            <mxRectangle width="30" height="30" as="alternateBounds" />
          </mxGeometry>
        </mxCell>
        <mxCell id="5gc-EdMEgWUK1N-vsXEk-109" value="ОписаниеПроблемы" style="shape=partialRectangle;connectable=0;fillColor=none;top=0;left=0;bottom=0;right=0;align=left;spacingLeft=6;overflow=hidden;" vertex="1" parent="5gc-EdMEgWUK1N-vsXEk-107">
          <mxGeometry x="30" width="150" height="30" as="geometry">
            <mxRectangle width="150" height="30" as="alternateBounds" />
          </mxGeometry>
        </mxCell>
        <mxCell id="5gc-EdMEgWUK1N-vsXEk-110" value="Статус заявки" style="shape=table;startSize=30;container=1;collapsible=1;childLayout=tableLayout;fixedRows=1;rowLines=0;fontStyle=1;align=center;resizeLast=1;html=1;fillColor=#f8cecc;strokeColor=#b85450;" vertex="1" parent="1">
          <mxGeometry x="939" y="2190" width="180" height="90" as="geometry" />
        </mxCell>
        <mxCell id="5gc-EdMEgWUK1N-vsXEk-111" value="" style="shape=tableRow;horizontal=0;startSize=0;swimlaneHead=0;swimlaneBody=0;fillColor=none;collapsible=0;dropTarget=0;points=[[0,0.5],[1,0.5]];portConstraint=eastwest;top=0;left=0;right=0;bottom=1;" vertex="1" parent="5gc-EdMEgWUK1N-vsXEk-110">
          <mxGeometry y="30" width="180" height="30" as="geometry" />
        </mxCell>
        <mxCell id="5gc-EdMEgWUK1N-vsXEk-112" value="PK" style="shape=partialRectangle;connectable=0;fillColor=none;top=0;left=0;bottom=0;right=0;fontStyle=1;overflow=hidden;whiteSpace=wrap;html=1;" vertex="1" parent="5gc-EdMEgWUK1N-vsXEk-111">
          <mxGeometry width="30" height="30" as="geometry">
            <mxRectangle width="30" height="30" as="alternateBounds" />
          </mxGeometry>
        </mxCell>
        <mxCell id="5gc-EdMEgWUK1N-vsXEk-113" value="Код" style="shape=partialRectangle;connectable=0;fillColor=none;top=0;left=0;bottom=0;right=0;align=left;spacingLeft=6;fontStyle=5;overflow=hidden;whiteSpace=wrap;html=1;" vertex="1" parent="5gc-EdMEgWUK1N-vsXEk-111">
          <mxGeometry x="30" width="150" height="30" as="geometry">
            <mxRectangle width="150" height="30" as="alternateBounds" />
          </mxGeometry>
        </mxCell>
        <mxCell id="5gc-EdMEgWUK1N-vsXEk-114" value="" style="shape=tableRow;horizontal=0;startSize=0;swimlaneHead=0;swimlaneBody=0;fillColor=none;collapsible=0;dropTarget=0;points=[[0,0.5],[1,0.5]];portConstraint=eastwest;top=0;left=0;right=0;bottom=0;" vertex="1" parent="5gc-EdMEgWUK1N-vsXEk-110">
          <mxGeometry y="60" width="180" height="30" as="geometry" />
        </mxCell>
        <mxCell id="5gc-EdMEgWUK1N-vsXEk-115" value="" style="shape=partialRectangle;connectable=0;fillColor=none;top=0;left=0;bottom=0;right=0;editable=1;overflow=hidden;whiteSpace=wrap;html=1;" vertex="1" parent="5gc-EdMEgWUK1N-vsXEk-114">
          <mxGeometry width="30" height="30" as="geometry">
            <mxRectangle width="30" height="30" as="alternateBounds" />
          </mxGeometry>
        </mxCell>
        <mxCell id="5gc-EdMEgWUK1N-vsXEk-116" value="Наименование" style="shape=partialRectangle;connectable=0;fillColor=none;top=0;left=0;bottom=0;right=0;align=left;spacingLeft=6;overflow=hidden;whiteSpace=wrap;html=1;" vertex="1" parent="5gc-EdMEgWUK1N-vsXEk-114">
          <mxGeometry x="30" width="150" height="30" as="geometry">
            <mxRectangle width="150" height="30" as="alternateBounds" />
          </mxGeometry>
        </mxCell>
        <mxCell id="5gc-EdMEgWUK1N-vsXEk-117" value="" style="edgeStyle=orthogonalEdgeStyle;fontSize=12;html=1;endArrow=ERoneToMany;rounded=0;exitX=0;exitY=0.5;exitDx=0;exitDy=0;entryX=0;entryY=0.5;entryDx=0;entryDy=0;" edge="1" parent="1" source="5gc-EdMEgWUK1N-vsXEk-111" target="5gc-EdMEgWUK1N-vsXEk-95">
          <mxGeometry width="100" height="100" relative="1" as="geometry">
            <mxPoint x="899" y="1880" as="sourcePoint" />
            <mxPoint x="999" y="1780" as="targetPoint" />
            <Array as="points">
              <mxPoint x="929" y="2235" />
              <mxPoint x="929" y="1820" />
              <mxPoint x="1000" y="1820" />
              <mxPoint x="1000" y="1795" />
            </Array>
          </mxGeometry>
        </mxCell>
        <mxCell id="5gc-EdMEgWUK1N-vsXEk-118" value="" style="edgeStyle=orthogonalEdgeStyle;fontSize=12;html=1;endArrow=ERoneToMany;rounded=0;exitX=0;exitY=0.5;exitDx=0;exitDy=0;entryX=1;entryY=0.5;entryDx=0;entryDy=0;" edge="1" parent="1" source="5gc-EdMEgWUK1N-vsXEk-48" target="5gc-EdMEgWUK1N-vsXEk-98">
          <mxGeometry width="100" height="100" relative="1" as="geometry">
            <mxPoint x="1359.92" y="1965" as="sourcePoint" />
            <mxPoint x="1389" y="1820" as="targetPoint" />
          </mxGeometry>
        </mxCell>
        <mxCell id="5gc-EdMEgWUK1N-vsXEk-119" value="РегистрацияЗаявок" style="shape=table;startSize=30;container=1;collapsible=1;childLayout=tableLayout;fixedRows=1;rowLines=0;fontStyle=1;align=center;resizeLast=1;html=1;fillColor=#f8cecc;strokeColor=#b85450;" vertex="1" parent="1">
          <mxGeometry x="1010" y="1100" width="260" height="370" as="geometry" />
        </mxCell>
        <mxCell id="5gc-EdMEgWUK1N-vsXEk-120" value="" style="shape=tableRow;horizontal=0;startSize=0;swimlaneHead=0;swimlaneBody=0;fillColor=none;collapsible=0;dropTarget=0;points=[[0,0.5],[1,0.5]];portConstraint=eastwest;top=0;left=0;right=0;bottom=1;" vertex="1" parent="5gc-EdMEgWUK1N-vsXEk-119">
          <mxGeometry y="30" width="260" height="30" as="geometry" />
        </mxCell>
        <mxCell id="5gc-EdMEgWUK1N-vsXEk-121" value="PK" style="shape=partialRectangle;connectable=0;fillColor=none;top=0;left=0;bottom=0;right=0;fontStyle=1;overflow=hidden;whiteSpace=wrap;html=1;" vertex="1" parent="5gc-EdMEgWUK1N-vsXEk-120">
          <mxGeometry width="30" height="30" as="geometry">
            <mxRectangle width="30" height="30" as="alternateBounds" />
          </mxGeometry>
        </mxCell>
        <mxCell id="5gc-EdMEgWUK1N-vsXEk-122" value="Номер" style="shape=partialRectangle;connectable=0;fillColor=none;top=0;left=0;bottom=0;right=0;align=left;spacingLeft=6;fontStyle=5;overflow=hidden;whiteSpace=wrap;html=1;" vertex="1" parent="5gc-EdMEgWUK1N-vsXEk-120">
          <mxGeometry x="30" width="230" height="30" as="geometry">
            <mxRectangle width="230" height="30" as="alternateBounds" />
          </mxGeometry>
        </mxCell>
        <mxCell id="5gc-EdMEgWUK1N-vsXEk-123" value="" style="shape=tableRow;horizontal=0;startSize=0;swimlaneHead=0;swimlaneBody=0;fillColor=none;collapsible=0;dropTarget=0;points=[[0,0.5],[1,0.5]];portConstraint=eastwest;top=0;left=0;right=0;bottom=0;" vertex="1" parent="5gc-EdMEgWUK1N-vsXEk-119">
          <mxGeometry y="60" width="260" height="30" as="geometry" />
        </mxCell>
        <mxCell id="5gc-EdMEgWUK1N-vsXEk-124" value="" style="shape=partialRectangle;connectable=0;fillColor=none;top=0;left=0;bottom=0;right=0;editable=1;overflow=hidden;whiteSpace=wrap;html=1;" vertex="1" parent="5gc-EdMEgWUK1N-vsXEk-123">
          <mxGeometry width="30" height="30" as="geometry">
            <mxRectangle width="30" height="30" as="alternateBounds" />
          </mxGeometry>
        </mxCell>
        <mxCell id="5gc-EdMEgWUK1N-vsXEk-125" value="Дата" style="shape=partialRectangle;connectable=0;fillColor=none;top=0;left=0;bottom=0;right=0;align=left;spacingLeft=6;overflow=hidden;whiteSpace=wrap;html=1;" vertex="1" parent="5gc-EdMEgWUK1N-vsXEk-123">
          <mxGeometry x="30" width="230" height="30" as="geometry">
            <mxRectangle width="230" height="30" as="alternateBounds" />
          </mxGeometry>
        </mxCell>
        <mxCell id="5gc-EdMEgWUK1N-vsXEk-126" value="" style="shape=tableRow;horizontal=0;startSize=0;swimlaneHead=0;swimlaneBody=0;fillColor=none;collapsible=0;dropTarget=0;points=[[0,0.5],[1,0.5]];portConstraint=eastwest;top=0;left=0;right=0;bottom=0;" vertex="1" parent="5gc-EdMEgWUK1N-vsXEk-119">
          <mxGeometry y="90" width="260" height="30" as="geometry" />
        </mxCell>
        <mxCell id="5gc-EdMEgWUK1N-vsXEk-127" value="" style="shape=partialRectangle;connectable=0;fillColor=none;top=0;left=0;bottom=0;right=0;editable=1;overflow=hidden;" vertex="1" parent="5gc-EdMEgWUK1N-vsXEk-126">
          <mxGeometry width="30" height="30" as="geometry">
            <mxRectangle width="30" height="30" as="alternateBounds" />
          </mxGeometry>
        </mxCell>
        <mxCell id="5gc-EdMEgWUK1N-vsXEk-128" value="УникальныйИдентификатор" style="shape=partialRectangle;connectable=0;fillColor=none;top=0;left=0;bottom=0;right=0;align=left;spacingLeft=6;overflow=hidden;" vertex="1" parent="5gc-EdMEgWUK1N-vsXEk-126">
          <mxGeometry x="30" width="230" height="30" as="geometry">
            <mxRectangle width="230" height="30" as="alternateBounds" />
          </mxGeometry>
        </mxCell>
        <mxCell id="5gc-EdMEgWUK1N-vsXEk-129" value="" style="shape=tableRow;horizontal=0;startSize=0;swimlaneHead=0;swimlaneBody=0;fillColor=none;collapsible=0;dropTarget=0;points=[[0,0.5],[1,0.5]];portConstraint=eastwest;top=0;left=0;right=0;bottom=0;" vertex="1" parent="5gc-EdMEgWUK1N-vsXEk-119">
          <mxGeometry y="120" width="260" height="30" as="geometry" />
        </mxCell>
        <mxCell id="5gc-EdMEgWUK1N-vsXEk-130" value="FK" style="shape=partialRectangle;connectable=0;fillColor=none;top=0;left=0;bottom=0;right=0;editable=1;overflow=hidden;whiteSpace=wrap;html=1;" vertex="1" parent="5gc-EdMEgWUK1N-vsXEk-129">
          <mxGeometry width="30" height="30" as="geometry">
            <mxRectangle width="30" height="30" as="alternateBounds" />
          </mxGeometry>
        </mxCell>
        <mxCell id="5gc-EdMEgWUK1N-vsXEk-131" value="Клиент" style="shape=partialRectangle;connectable=0;fillColor=none;top=0;left=0;bottom=0;right=0;align=left;spacingLeft=6;overflow=hidden;whiteSpace=wrap;html=1;" vertex="1" parent="5gc-EdMEgWUK1N-vsXEk-129">
          <mxGeometry x="30" width="230" height="30" as="geometry">
            <mxRectangle width="230" height="30" as="alternateBounds" />
          </mxGeometry>
        </mxCell>
        <mxCell id="5gc-EdMEgWUK1N-vsXEk-132" value="" style="shape=tableRow;horizontal=0;startSize=0;swimlaneHead=0;swimlaneBody=0;fillColor=none;collapsible=0;dropTarget=0;points=[[0,0.5],[1,0.5]];portConstraint=eastwest;top=0;left=0;right=0;bottom=0;" vertex="1" parent="5gc-EdMEgWUK1N-vsXEk-119">
          <mxGeometry y="150" width="260" height="40" as="geometry" />
        </mxCell>
        <mxCell id="5gc-EdMEgWUK1N-vsXEk-133" value="FK" style="shape=partialRectangle;connectable=0;fillColor=none;top=0;left=0;bottom=0;right=0;editable=1;overflow=hidden;whiteSpace=wrap;html=1;" vertex="1" parent="5gc-EdMEgWUK1N-vsXEk-132">
          <mxGeometry width="30" height="40" as="geometry">
            <mxRectangle width="30" height="40" as="alternateBounds" />
          </mxGeometry>
        </mxCell>
        <mxCell id="5gc-EdMEgWUK1N-vsXEk-134" value="Сотрудник" style="shape=partialRectangle;connectable=0;fillColor=none;top=0;left=0;bottom=0;right=0;align=left;spacingLeft=6;overflow=hidden;whiteSpace=wrap;html=1;" vertex="1" parent="5gc-EdMEgWUK1N-vsXEk-132">
          <mxGeometry x="30" width="230" height="40" as="geometry">
            <mxRectangle width="230" height="40" as="alternateBounds" />
          </mxGeometry>
        </mxCell>
        <mxCell id="5gc-EdMEgWUK1N-vsXEk-135" value="" style="shape=tableRow;horizontal=0;startSize=0;swimlaneHead=0;swimlaneBody=0;fillColor=none;collapsible=0;dropTarget=0;points=[[0,0.5],[1,0.5]];portConstraint=eastwest;top=0;left=0;right=0;bottom=0;" vertex="1" parent="5gc-EdMEgWUK1N-vsXEk-119">
          <mxGeometry y="190" width="260" height="30" as="geometry" />
        </mxCell>
        <mxCell id="5gc-EdMEgWUK1N-vsXEk-136" value="FK" style="shape=partialRectangle;connectable=0;fillColor=none;top=0;left=0;bottom=0;right=0;editable=1;overflow=hidden;" vertex="1" parent="5gc-EdMEgWUK1N-vsXEk-135">
          <mxGeometry width="30" height="30" as="geometry">
            <mxRectangle width="30" height="30" as="alternateBounds" />
          </mxGeometry>
        </mxCell>
        <mxCell id="5gc-EdMEgWUK1N-vsXEk-137" value="СтатусЗаявки" style="shape=partialRectangle;connectable=0;fillColor=none;top=0;left=0;bottom=0;right=0;align=left;spacingLeft=6;overflow=hidden;" vertex="1" parent="5gc-EdMEgWUK1N-vsXEk-135">
          <mxGeometry x="30" width="230" height="30" as="geometry">
            <mxRectangle width="230" height="30" as="alternateBounds" />
          </mxGeometry>
        </mxCell>
        <mxCell id="5gc-EdMEgWUK1N-vsXEk-138" value="" style="shape=tableRow;horizontal=0;startSize=0;swimlaneHead=0;swimlaneBody=0;fillColor=none;collapsible=0;dropTarget=0;points=[[0,0.5],[1,0.5]];portConstraint=eastwest;top=0;left=0;right=0;bottom=0;" vertex="1" parent="5gc-EdMEgWUK1N-vsXEk-119">
          <mxGeometry y="220" width="260" height="30" as="geometry" />
        </mxCell>
        <mxCell id="5gc-EdMEgWUK1N-vsXEk-139" value="FK" style="shape=partialRectangle;connectable=0;fillColor=none;top=0;left=0;bottom=0;right=0;editable=1;overflow=hidden;" vertex="1" parent="5gc-EdMEgWUK1N-vsXEk-138">
          <mxGeometry width="30" height="30" as="geometry">
            <mxRectangle width="30" height="30" as="alternateBounds" />
          </mxGeometry>
        </mxCell>
        <mxCell id="5gc-EdMEgWUK1N-vsXEk-140" value="ТипОборудования" style="shape=partialRectangle;connectable=0;fillColor=none;top=0;left=0;bottom=0;right=0;align=left;spacingLeft=6;overflow=hidden;" vertex="1" parent="5gc-EdMEgWUK1N-vsXEk-138">
          <mxGeometry x="30" width="230" height="30" as="geometry">
            <mxRectangle width="230" height="30" as="alternateBounds" />
          </mxGeometry>
        </mxCell>
        <mxCell id="5gc-EdMEgWUK1N-vsXEk-141" value="" style="shape=tableRow;horizontal=0;startSize=0;swimlaneHead=0;swimlaneBody=0;fillColor=none;collapsible=0;dropTarget=0;points=[[0,0.5],[1,0.5]];portConstraint=eastwest;top=0;left=0;right=0;bottom=0;" vertex="1" parent="5gc-EdMEgWUK1N-vsXEk-119">
          <mxGeometry y="250" width="260" height="30" as="geometry" />
        </mxCell>
        <mxCell id="5gc-EdMEgWUK1N-vsXEk-142" value="" style="shape=partialRectangle;connectable=0;fillColor=none;top=0;left=0;bottom=0;right=0;editable=1;overflow=hidden;" vertex="1" parent="5gc-EdMEgWUK1N-vsXEk-141">
          <mxGeometry width="30" height="30" as="geometry">
            <mxRectangle width="30" height="30" as="alternateBounds" />
          </mxGeometry>
        </mxCell>
        <mxCell id="5gc-EdMEgWUK1N-vsXEk-143" value="МодельОборудования" style="shape=partialRectangle;connectable=0;fillColor=none;top=0;left=0;bottom=0;right=0;align=left;spacingLeft=6;overflow=hidden;" vertex="1" parent="5gc-EdMEgWUK1N-vsXEk-141">
          <mxGeometry x="30" width="230" height="30" as="geometry">
            <mxRectangle width="230" height="30" as="alternateBounds" />
          </mxGeometry>
        </mxCell>
        <mxCell id="5gc-EdMEgWUK1N-vsXEk-144" value="" style="shape=tableRow;horizontal=0;startSize=0;swimlaneHead=0;swimlaneBody=0;fillColor=none;collapsible=0;dropTarget=0;points=[[0,0.5],[1,0.5]];portConstraint=eastwest;top=0;left=0;right=0;bottom=0;" vertex="1" parent="5gc-EdMEgWUK1N-vsXEk-119">
          <mxGeometry y="280" width="260" height="30" as="geometry" />
        </mxCell>
        <mxCell id="5gc-EdMEgWUK1N-vsXEk-145" value="FK" style="shape=partialRectangle;connectable=0;fillColor=none;top=0;left=0;bottom=0;right=0;editable=1;overflow=hidden;" vertex="1" parent="5gc-EdMEgWUK1N-vsXEk-144">
          <mxGeometry width="30" height="30" as="geometry">
            <mxRectangle width="30" height="30" as="alternateBounds" />
          </mxGeometry>
        </mxCell>
        <mxCell id="5gc-EdMEgWUK1N-vsXEk-146" value="ДокументОснования" style="shape=partialRectangle;connectable=0;fillColor=none;top=0;left=0;bottom=0;right=0;align=left;spacingLeft=6;overflow=hidden;" vertex="1" parent="5gc-EdMEgWUK1N-vsXEk-144">
          <mxGeometry x="30" width="230" height="30" as="geometry">
            <mxRectangle width="230" height="30" as="alternateBounds" />
          </mxGeometry>
        </mxCell>
        <mxCell id="5gc-EdMEgWUK1N-vsXEk-147" style="shape=tableRow;horizontal=0;startSize=0;swimlaneHead=0;swimlaneBody=0;fillColor=#fff2cc;collapsible=0;dropTarget=0;points=[[0,0.5],[1,0.5]];portConstraint=eastwest;top=0;left=0;right=0;bottom=0;strokeColor=#d6b656;" vertex="1" parent="5gc-EdMEgWUK1N-vsXEk-119">
          <mxGeometry y="310" width="260" height="30" as="geometry" />
        </mxCell>
        <mxCell id="5gc-EdMEgWUK1N-vsXEk-148" style="shape=partialRectangle;connectable=0;fillColor=none;top=0;left=0;bottom=0;right=0;editable=1;overflow=hidden;" vertex="1" parent="5gc-EdMEgWUK1N-vsXEk-147">
          <mxGeometry width="30" height="30" as="geometry">
            <mxRectangle width="30" height="30" as="alternateBounds" />
          </mxGeometry>
        </mxCell>
        <mxCell id="5gc-EdMEgWUK1N-vsXEk-149" value="Табличная часть" style="shape=partialRectangle;connectable=0;fillColor=none;top=0;left=0;bottom=0;right=0;align=left;spacingLeft=6;overflow=hidden;" vertex="1" parent="5gc-EdMEgWUK1N-vsXEk-147">
          <mxGeometry x="30" width="230" height="30" as="geometry">
            <mxRectangle width="230" height="30" as="alternateBounds" />
          </mxGeometry>
        </mxCell>
        <mxCell id="5gc-EdMEgWUK1N-vsXEk-150" style="shape=tableRow;horizontal=0;startSize=0;swimlaneHead=0;swimlaneBody=0;collapsible=0;dropTarget=0;points=[[0,0.5],[1,0.5]];portConstraint=eastwest;top=0;left=0;right=0;bottom=0;fillColor=none;" vertex="1" parent="5gc-EdMEgWUK1N-vsXEk-119">
          <mxGeometry y="340" width="260" height="30" as="geometry" />
        </mxCell>
        <mxCell id="5gc-EdMEgWUK1N-vsXEk-151" style="shape=partialRectangle;connectable=0;fillColor=none;top=0;left=0;bottom=0;right=0;editable=1;overflow=hidden;" vertex="1" parent="5gc-EdMEgWUK1N-vsXEk-150">
          <mxGeometry width="30" height="30" as="geometry">
            <mxRectangle width="30" height="30" as="alternateBounds" />
          </mxGeometry>
        </mxCell>
        <mxCell id="5gc-EdMEgWUK1N-vsXEk-152" value="ОписаниеПроблемы" style="shape=partialRectangle;connectable=0;fillColor=none;top=0;left=0;bottom=0;right=0;align=left;spacingLeft=6;overflow=hidden;" vertex="1" parent="5gc-EdMEgWUK1N-vsXEk-150">
          <mxGeometry x="30" width="230" height="30" as="geometry">
            <mxRectangle width="230" height="30" as="alternateBounds" />
          </mxGeometry>
        </mxCell>
        <mxCell id="5gc-EdMEgWUK1N-vsXEk-153" value="" style="edgeStyle=orthogonalEdgeStyle;fontSize=12;html=1;endArrow=ERoneToMany;rounded=0;exitX=0;exitY=0.5;exitDx=0;exitDy=0;entryX=0;entryY=0.5;entryDx=0;entryDy=0;" edge="1" parent="1" source="5gc-EdMEgWUK1N-vsXEk-83" target="5gc-EdMEgWUK1N-vsXEk-144">
          <mxGeometry width="100" height="100" relative="1" as="geometry">
            <mxPoint x="930" y="1660" as="sourcePoint" />
            <mxPoint x="980" y="1520" as="targetPoint" />
          </mxGeometry>
        </mxCell>
        <mxCell id="5gc-EdMEgWUK1N-vsXEk-154" value="ОбработкаЗаявок" style="shape=table;startSize=30;container=1;collapsible=1;childLayout=tableLayout;fixedRows=1;rowLines=0;fontStyle=1;align=center;resizeLast=1;html=1;fillColor=#f8cecc;strokeColor=#b85450;" vertex="1" parent="1">
          <mxGeometry x="691" y="920" width="209" height="570" as="geometry" />
        </mxCell>
        <mxCell id="5gc-EdMEgWUK1N-vsXEk-155" value="" style="shape=tableRow;horizontal=0;startSize=0;swimlaneHead=0;swimlaneBody=0;fillColor=none;collapsible=0;dropTarget=0;points=[[0,0.5],[1,0.5]];portConstraint=eastwest;top=0;left=0;right=0;bottom=1;" vertex="1" parent="5gc-EdMEgWUK1N-vsXEk-154">
          <mxGeometry y="30" width="209" height="30" as="geometry" />
        </mxCell>
        <mxCell id="5gc-EdMEgWUK1N-vsXEk-156" value="PK" style="shape=partialRectangle;connectable=0;fillColor=none;top=0;left=0;bottom=0;right=0;fontStyle=1;overflow=hidden;whiteSpace=wrap;html=1;" vertex="1" parent="5gc-EdMEgWUK1N-vsXEk-155">
          <mxGeometry width="30" height="30" as="geometry">
            <mxRectangle width="30" height="30" as="alternateBounds" />
          </mxGeometry>
        </mxCell>
        <mxCell id="5gc-EdMEgWUK1N-vsXEk-157" value="Номер" style="shape=partialRectangle;connectable=0;fillColor=none;top=0;left=0;bottom=0;right=0;align=left;spacingLeft=6;fontStyle=5;overflow=hidden;whiteSpace=wrap;html=1;" vertex="1" parent="5gc-EdMEgWUK1N-vsXEk-155">
          <mxGeometry x="30" width="179" height="30" as="geometry">
            <mxRectangle width="179" height="30" as="alternateBounds" />
          </mxGeometry>
        </mxCell>
        <mxCell id="5gc-EdMEgWUK1N-vsXEk-158" value="" style="shape=tableRow;horizontal=0;startSize=0;swimlaneHead=0;swimlaneBody=0;fillColor=none;collapsible=0;dropTarget=0;points=[[0,0.5],[1,0.5]];portConstraint=eastwest;top=0;left=0;right=0;bottom=0;" vertex="1" parent="5gc-EdMEgWUK1N-vsXEk-154">
          <mxGeometry y="60" width="209" height="30" as="geometry" />
        </mxCell>
        <mxCell id="5gc-EdMEgWUK1N-vsXEk-159" value="" style="shape=partialRectangle;connectable=0;fillColor=none;top=0;left=0;bottom=0;right=0;editable=1;overflow=hidden;whiteSpace=wrap;html=1;" vertex="1" parent="5gc-EdMEgWUK1N-vsXEk-158">
          <mxGeometry width="30" height="30" as="geometry">
            <mxRectangle width="30" height="30" as="alternateBounds" />
          </mxGeometry>
        </mxCell>
        <mxCell id="5gc-EdMEgWUK1N-vsXEk-160" value="Дата" style="shape=partialRectangle;connectable=0;fillColor=none;top=0;left=0;bottom=0;right=0;align=left;spacingLeft=6;overflow=hidden;whiteSpace=wrap;html=1;" vertex="1" parent="5gc-EdMEgWUK1N-vsXEk-158">
          <mxGeometry x="30" width="179" height="30" as="geometry">
            <mxRectangle width="179" height="30" as="alternateBounds" />
          </mxGeometry>
        </mxCell>
        <mxCell id="5gc-EdMEgWUK1N-vsXEk-161" value="" style="shape=tableRow;horizontal=0;startSize=0;swimlaneHead=0;swimlaneBody=0;fillColor=none;collapsible=0;dropTarget=0;points=[[0,0.5],[1,0.5]];portConstraint=eastwest;top=0;left=0;right=0;bottom=0;" vertex="1" parent="5gc-EdMEgWUK1N-vsXEk-154">
          <mxGeometry y="90" width="209" height="30" as="geometry" />
        </mxCell>
        <mxCell id="5gc-EdMEgWUK1N-vsXEk-162" value="" style="shape=partialRectangle;connectable=0;fillColor=none;top=0;left=0;bottom=0;right=0;editable=1;overflow=hidden;" vertex="1" parent="5gc-EdMEgWUK1N-vsXEk-161">
          <mxGeometry width="30" height="30" as="geometry">
            <mxRectangle width="30" height="30" as="alternateBounds" />
          </mxGeometry>
        </mxCell>
        <mxCell id="5gc-EdMEgWUK1N-vsXEk-163" value="УникальныйИдентификатор" style="shape=partialRectangle;connectable=0;fillColor=none;top=0;left=0;bottom=0;right=0;align=left;spacingLeft=6;overflow=hidden;" vertex="1" parent="5gc-EdMEgWUK1N-vsXEk-161">
          <mxGeometry x="30" width="179" height="30" as="geometry">
            <mxRectangle width="179" height="30" as="alternateBounds" />
          </mxGeometry>
        </mxCell>
        <mxCell id="5gc-EdMEgWUK1N-vsXEk-164" value="" style="shape=tableRow;horizontal=0;startSize=0;swimlaneHead=0;swimlaneBody=0;fillColor=none;collapsible=0;dropTarget=0;points=[[0,0.5],[1,0.5]];portConstraint=eastwest;top=0;left=0;right=0;bottom=0;" vertex="1" parent="5gc-EdMEgWUK1N-vsXEk-154">
          <mxGeometry y="120" width="209" height="30" as="geometry" />
        </mxCell>
        <mxCell id="5gc-EdMEgWUK1N-vsXEk-165" value="FK" style="shape=partialRectangle;connectable=0;fillColor=none;top=0;left=0;bottom=0;right=0;editable=1;overflow=hidden;whiteSpace=wrap;html=1;" vertex="1" parent="5gc-EdMEgWUK1N-vsXEk-164">
          <mxGeometry width="30" height="30" as="geometry">
            <mxRectangle width="30" height="30" as="alternateBounds" />
          </mxGeometry>
        </mxCell>
        <mxCell id="5gc-EdMEgWUK1N-vsXEk-166" value="Клиент" style="shape=partialRectangle;connectable=0;fillColor=none;top=0;left=0;bottom=0;right=0;align=left;spacingLeft=6;overflow=hidden;whiteSpace=wrap;html=1;" vertex="1" parent="5gc-EdMEgWUK1N-vsXEk-164">
          <mxGeometry x="30" width="179" height="30" as="geometry">
            <mxRectangle width="179" height="30" as="alternateBounds" />
          </mxGeometry>
        </mxCell>
        <mxCell id="5gc-EdMEgWUK1N-vsXEk-167" value="" style="shape=tableRow;horizontal=0;startSize=0;swimlaneHead=0;swimlaneBody=0;fillColor=none;collapsible=0;dropTarget=0;points=[[0,0.5],[1,0.5]];portConstraint=eastwest;top=0;left=0;right=0;bottom=0;" vertex="1" parent="5gc-EdMEgWUK1N-vsXEk-154">
          <mxGeometry y="150" width="209" height="30" as="geometry" />
        </mxCell>
        <mxCell id="5gc-EdMEgWUK1N-vsXEk-168" value="FK" style="shape=partialRectangle;connectable=0;fillColor=none;top=0;left=0;bottom=0;right=0;editable=1;overflow=hidden;whiteSpace=wrap;html=1;" vertex="1" parent="5gc-EdMEgWUK1N-vsXEk-167">
          <mxGeometry width="30" height="30" as="geometry">
            <mxRectangle width="30" height="30" as="alternateBounds" />
          </mxGeometry>
        </mxCell>
        <mxCell id="5gc-EdMEgWUK1N-vsXEk-169" value="Сотрудник" style="shape=partialRectangle;connectable=0;fillColor=none;top=0;left=0;bottom=0;right=0;align=left;spacingLeft=6;overflow=hidden;whiteSpace=wrap;html=1;" vertex="1" parent="5gc-EdMEgWUK1N-vsXEk-167">
          <mxGeometry x="30" width="179" height="30" as="geometry">
            <mxRectangle width="179" height="30" as="alternateBounds" />
          </mxGeometry>
        </mxCell>
        <mxCell id="5gc-EdMEgWUK1N-vsXEk-170" value="" style="shape=tableRow;horizontal=0;startSize=0;swimlaneHead=0;swimlaneBody=0;fillColor=none;collapsible=0;dropTarget=0;points=[[0,0.5],[1,0.5]];portConstraint=eastwest;top=0;left=0;right=0;bottom=0;" vertex="1" parent="5gc-EdMEgWUK1N-vsXEk-154">
          <mxGeometry y="180" width="209" height="30" as="geometry" />
        </mxCell>
        <mxCell id="5gc-EdMEgWUK1N-vsXEk-171" value="FK" style="shape=partialRectangle;connectable=0;fillColor=none;top=0;left=0;bottom=0;right=0;editable=1;overflow=hidden;" vertex="1" parent="5gc-EdMEgWUK1N-vsXEk-170">
          <mxGeometry width="30" height="30" as="geometry">
            <mxRectangle width="30" height="30" as="alternateBounds" />
          </mxGeometry>
        </mxCell>
        <mxCell id="5gc-EdMEgWUK1N-vsXEk-172" value="СтатусЗаявки" style="shape=partialRectangle;connectable=0;fillColor=none;top=0;left=0;bottom=0;right=0;align=left;spacingLeft=6;overflow=hidden;" vertex="1" parent="5gc-EdMEgWUK1N-vsXEk-170">
          <mxGeometry x="30" width="179" height="30" as="geometry">
            <mxRectangle width="179" height="30" as="alternateBounds" />
          </mxGeometry>
        </mxCell>
        <mxCell id="5gc-EdMEgWUK1N-vsXEk-173" value="" style="shape=tableRow;horizontal=0;startSize=0;swimlaneHead=0;swimlaneBody=0;fillColor=none;collapsible=0;dropTarget=0;points=[[0,0.5],[1,0.5]];portConstraint=eastwest;top=0;left=0;right=0;bottom=0;" vertex="1" parent="5gc-EdMEgWUK1N-vsXEk-154">
          <mxGeometry y="210" width="209" height="30" as="geometry" />
        </mxCell>
        <mxCell id="5gc-EdMEgWUK1N-vsXEk-174" value="FK" style="shape=partialRectangle;connectable=0;fillColor=none;top=0;left=0;bottom=0;right=0;editable=1;overflow=hidden;" vertex="1" parent="5gc-EdMEgWUK1N-vsXEk-173">
          <mxGeometry width="30" height="30" as="geometry">
            <mxRectangle width="30" height="30" as="alternateBounds" />
          </mxGeometry>
        </mxCell>
        <mxCell id="5gc-EdMEgWUK1N-vsXEk-175" value="Оборудование" style="shape=partialRectangle;connectable=0;fillColor=none;top=0;left=0;bottom=0;right=0;align=left;spacingLeft=6;overflow=hidden;" vertex="1" parent="5gc-EdMEgWUK1N-vsXEk-173">
          <mxGeometry x="30" width="179" height="30" as="geometry">
            <mxRectangle width="179" height="30" as="alternateBounds" />
          </mxGeometry>
        </mxCell>
        <mxCell id="5gc-EdMEgWUK1N-vsXEk-176" value="" style="shape=tableRow;horizontal=0;startSize=0;swimlaneHead=0;swimlaneBody=0;fillColor=none;collapsible=0;dropTarget=0;points=[[0,0.5],[1,0.5]];portConstraint=eastwest;top=0;left=0;right=0;bottom=0;" vertex="1" parent="5gc-EdMEgWUK1N-vsXEk-154">
          <mxGeometry y="240" width="209" height="30" as="geometry" />
        </mxCell>
        <mxCell id="5gc-EdMEgWUK1N-vsXEk-177" value="FK" style="shape=partialRectangle;connectable=0;fillColor=none;top=0;left=0;bottom=0;right=0;editable=1;overflow=hidden;" vertex="1" parent="5gc-EdMEgWUK1N-vsXEk-176">
          <mxGeometry width="30" height="30" as="geometry">
            <mxRectangle width="30" height="30" as="alternateBounds" />
          </mxGeometry>
        </mxCell>
        <mxCell id="5gc-EdMEgWUK1N-vsXEk-178" value="Приоритет" style="shape=partialRectangle;connectable=0;fillColor=none;top=0;left=0;bottom=0;right=0;align=left;spacingLeft=6;overflow=hidden;" vertex="1" parent="5gc-EdMEgWUK1N-vsXEk-176">
          <mxGeometry x="30" width="179" height="30" as="geometry">
            <mxRectangle width="179" height="30" as="alternateBounds" />
          </mxGeometry>
        </mxCell>
        <mxCell id="5gc-EdMEgWUK1N-vsXEk-179" value="" style="shape=tableRow;horizontal=0;startSize=0;swimlaneHead=0;swimlaneBody=0;fillColor=none;collapsible=0;dropTarget=0;points=[[0,0.5],[1,0.5]];portConstraint=eastwest;top=0;left=0;right=0;bottom=0;" vertex="1" parent="5gc-EdMEgWUK1N-vsXEk-154">
          <mxGeometry y="270" width="209" height="30" as="geometry" />
        </mxCell>
        <mxCell id="5gc-EdMEgWUK1N-vsXEk-180" value="FK" style="shape=partialRectangle;connectable=0;fillColor=none;top=0;left=0;bottom=0;right=0;editable=1;overflow=hidden;" vertex="1" parent="5gc-EdMEgWUK1N-vsXEk-179">
          <mxGeometry width="30" height="30" as="geometry">
            <mxRectangle width="30" height="30" as="alternateBounds" />
          </mxGeometry>
        </mxCell>
        <mxCell id="5gc-EdMEgWUK1N-vsXEk-181" value="ДокументОснования" style="shape=partialRectangle;connectable=0;fillColor=none;top=0;left=0;bottom=0;right=0;align=left;spacingLeft=6;overflow=hidden;" vertex="1" parent="5gc-EdMEgWUK1N-vsXEk-179">
          <mxGeometry x="30" width="179" height="30" as="geometry">
            <mxRectangle width="179" height="30" as="alternateBounds" />
          </mxGeometry>
        </mxCell>
        <mxCell id="5gc-EdMEgWUK1N-vsXEk-182" value="" style="shape=tableRow;horizontal=0;startSize=0;swimlaneHead=0;swimlaneBody=0;fillColor=none;collapsible=0;dropTarget=0;points=[[0,0.5],[1,0.5]];portConstraint=eastwest;top=0;left=0;right=0;bottom=0;" vertex="1" parent="5gc-EdMEgWUK1N-vsXEk-154">
          <mxGeometry y="300" width="209" height="30" as="geometry" />
        </mxCell>
        <mxCell id="5gc-EdMEgWUK1N-vsXEk-183" value="" style="shape=partialRectangle;connectable=0;fillColor=none;top=0;left=0;bottom=0;right=0;editable=1;overflow=hidden;" vertex="1" parent="5gc-EdMEgWUK1N-vsXEk-182">
          <mxGeometry width="30" height="30" as="geometry">
            <mxRectangle width="30" height="30" as="alternateBounds" />
          </mxGeometry>
        </mxCell>
        <mxCell id="5gc-EdMEgWUK1N-vsXEk-184" value="ОбщаяСумма" style="shape=partialRectangle;connectable=0;fillColor=none;top=0;left=0;bottom=0;right=0;align=left;spacingLeft=6;overflow=hidden;" vertex="1" parent="5gc-EdMEgWUK1N-vsXEk-182">
          <mxGeometry x="30" width="179" height="30" as="geometry">
            <mxRectangle width="179" height="30" as="alternateBounds" />
          </mxGeometry>
        </mxCell>
        <mxCell id="5gc-EdMEgWUK1N-vsXEk-185" value="" style="shape=tableRow;horizontal=0;startSize=0;swimlaneHead=0;swimlaneBody=0;fillColor=none;collapsible=0;dropTarget=0;points=[[0,0.5],[1,0.5]];portConstraint=eastwest;top=0;left=0;right=0;bottom=0;" vertex="1" parent="5gc-EdMEgWUK1N-vsXEk-154">
          <mxGeometry y="330" width="209" height="30" as="geometry" />
        </mxCell>
        <mxCell id="5gc-EdMEgWUK1N-vsXEk-186" value="" style="shape=partialRectangle;connectable=0;fillColor=none;top=0;left=0;bottom=0;right=0;editable=1;overflow=hidden;" vertex="1" parent="5gc-EdMEgWUK1N-vsXEk-185">
          <mxGeometry width="30" height="30" as="geometry">
            <mxRectangle width="30" height="30" as="alternateBounds" />
          </mxGeometry>
        </mxCell>
        <mxCell id="5gc-EdMEgWUK1N-vsXEk-187" value="ДатаНачалаРемонта" style="shape=partialRectangle;connectable=0;fillColor=none;top=0;left=0;bottom=0;right=0;align=left;spacingLeft=6;overflow=hidden;" vertex="1" parent="5gc-EdMEgWUK1N-vsXEk-185">
          <mxGeometry x="30" width="179" height="30" as="geometry">
            <mxRectangle width="179" height="30" as="alternateBounds" />
          </mxGeometry>
        </mxCell>
        <mxCell id="5gc-EdMEgWUK1N-vsXEk-188" value="" style="shape=tableRow;horizontal=0;startSize=0;swimlaneHead=0;swimlaneBody=0;fillColor=none;collapsible=0;dropTarget=0;points=[[0,0.5],[1,0.5]];portConstraint=eastwest;top=0;left=0;right=0;bottom=0;" vertex="1" parent="5gc-EdMEgWUK1N-vsXEk-154">
          <mxGeometry y="360" width="209" height="30" as="geometry" />
        </mxCell>
        <mxCell id="5gc-EdMEgWUK1N-vsXEk-189" value="" style="shape=partialRectangle;connectable=0;fillColor=none;top=0;left=0;bottom=0;right=0;editable=1;overflow=hidden;" vertex="1" parent="5gc-EdMEgWUK1N-vsXEk-188">
          <mxGeometry width="30" height="30" as="geometry">
            <mxRectangle width="30" height="30" as="alternateBounds" />
          </mxGeometry>
        </mxCell>
        <mxCell id="5gc-EdMEgWUK1N-vsXEk-190" value="ДатаОкончанияРемонта" style="shape=partialRectangle;connectable=0;fillColor=none;top=0;left=0;bottom=0;right=0;align=left;spacingLeft=6;overflow=hidden;" vertex="1" parent="5gc-EdMEgWUK1N-vsXEk-188">
          <mxGeometry x="30" width="179" height="30" as="geometry">
            <mxRectangle width="179" height="30" as="alternateBounds" />
          </mxGeometry>
        </mxCell>
        <mxCell id="5gc-EdMEgWUK1N-vsXEk-191" style="shape=tableRow;horizontal=0;startSize=0;swimlaneHead=0;swimlaneBody=0;fillColor=#fff2cc;collapsible=0;dropTarget=0;points=[[0,0.5],[1,0.5]];portConstraint=eastwest;top=0;left=0;right=0;bottom=0;strokeColor=#d6b656;" vertex="1" parent="5gc-EdMEgWUK1N-vsXEk-154">
          <mxGeometry y="390" width="209" height="30" as="geometry" />
        </mxCell>
        <mxCell id="5gc-EdMEgWUK1N-vsXEk-192" style="shape=partialRectangle;connectable=0;fillColor=none;top=0;left=0;bottom=0;right=0;editable=1;overflow=hidden;" vertex="1" parent="5gc-EdMEgWUK1N-vsXEk-191">
          <mxGeometry width="30" height="30" as="geometry">
            <mxRectangle width="30" height="30" as="alternateBounds" />
          </mxGeometry>
        </mxCell>
        <mxCell id="5gc-EdMEgWUK1N-vsXEk-193" value="Табличная часть" style="shape=partialRectangle;connectable=0;fillColor=none;top=0;left=0;bottom=0;right=0;align=left;spacingLeft=6;overflow=hidden;" vertex="1" parent="5gc-EdMEgWUK1N-vsXEk-191">
          <mxGeometry x="30" width="179" height="30" as="geometry">
            <mxRectangle width="179" height="30" as="alternateBounds" />
          </mxGeometry>
        </mxCell>
        <mxCell id="5gc-EdMEgWUK1N-vsXEk-194" style="shape=tableRow;horizontal=0;startSize=0;swimlaneHead=0;swimlaneBody=0;collapsible=0;dropTarget=0;points=[[0,0.5],[1,0.5]];portConstraint=eastwest;top=0;left=0;right=0;bottom=0;fillColor=none;" vertex="1" parent="5gc-EdMEgWUK1N-vsXEk-154">
          <mxGeometry y="420" width="209" height="30" as="geometry" />
        </mxCell>
        <mxCell id="5gc-EdMEgWUK1N-vsXEk-195" style="shape=partialRectangle;connectable=0;fillColor=none;top=0;left=0;bottom=0;right=0;editable=1;overflow=hidden;" vertex="1" parent="5gc-EdMEgWUK1N-vsXEk-194">
          <mxGeometry width="30" height="30" as="geometry">
            <mxRectangle width="30" height="30" as="alternateBounds" />
          </mxGeometry>
        </mxCell>
        <mxCell id="5gc-EdMEgWUK1N-vsXEk-196" value="ОписаниеПроблемы" style="shape=partialRectangle;connectable=0;fillColor=none;top=0;left=0;bottom=0;right=0;align=left;spacingLeft=6;overflow=hidden;" vertex="1" parent="5gc-EdMEgWUK1N-vsXEk-194">
          <mxGeometry x="30" width="179" height="30" as="geometry">
            <mxRectangle width="179" height="30" as="alternateBounds" />
          </mxGeometry>
        </mxCell>
        <mxCell id="5gc-EdMEgWUK1N-vsXEk-197" value="" style="shape=tableRow;horizontal=0;startSize=0;swimlaneHead=0;swimlaneBody=0;fillColor=none;collapsible=0;dropTarget=0;points=[[0,0.5],[1,0.5]];portConstraint=eastwest;top=0;left=0;right=0;bottom=0;" vertex="1" parent="5gc-EdMEgWUK1N-vsXEk-154">
          <mxGeometry y="450" width="209" height="30" as="geometry" />
        </mxCell>
        <mxCell id="5gc-EdMEgWUK1N-vsXEk-198" value="FK" style="shape=partialRectangle;connectable=0;fillColor=none;top=0;left=0;bottom=0;right=0;editable=1;overflow=hidden;" vertex="1" parent="5gc-EdMEgWUK1N-vsXEk-197">
          <mxGeometry width="30" height="30" as="geometry">
            <mxRectangle width="30" height="30" as="alternateBounds" />
          </mxGeometry>
        </mxCell>
        <mxCell id="5gc-EdMEgWUK1N-vsXEk-199" value="Услуга" style="shape=partialRectangle;connectable=0;fillColor=none;top=0;left=0;bottom=0;right=0;align=left;spacingLeft=6;overflow=hidden;" vertex="1" parent="5gc-EdMEgWUK1N-vsXEk-197">
          <mxGeometry x="30" width="179" height="30" as="geometry">
            <mxRectangle width="179" height="30" as="alternateBounds" />
          </mxGeometry>
        </mxCell>
        <mxCell id="5gc-EdMEgWUK1N-vsXEk-200" value="" style="shape=tableRow;horizontal=0;startSize=0;swimlaneHead=0;swimlaneBody=0;fillColor=none;collapsible=0;dropTarget=0;points=[[0,0.5],[1,0.5]];portConstraint=eastwest;top=0;left=0;right=0;bottom=0;" vertex="1" parent="5gc-EdMEgWUK1N-vsXEk-154">
          <mxGeometry y="480" width="209" height="30" as="geometry" />
        </mxCell>
        <mxCell id="5gc-EdMEgWUK1N-vsXEk-201" value="" style="shape=partialRectangle;connectable=0;fillColor=none;top=0;left=0;bottom=0;right=0;editable=1;overflow=hidden;" vertex="1" parent="5gc-EdMEgWUK1N-vsXEk-200">
          <mxGeometry width="30" height="30" as="geometry">
            <mxRectangle width="30" height="30" as="alternateBounds" />
          </mxGeometry>
        </mxCell>
        <mxCell id="5gc-EdMEgWUK1N-vsXEk-202" value="Цена" style="shape=partialRectangle;connectable=0;fillColor=none;top=0;left=0;bottom=0;right=0;align=left;spacingLeft=6;overflow=hidden;" vertex="1" parent="5gc-EdMEgWUK1N-vsXEk-200">
          <mxGeometry x="30" width="179" height="30" as="geometry">
            <mxRectangle width="179" height="30" as="alternateBounds" />
          </mxGeometry>
        </mxCell>
        <mxCell id="5gc-EdMEgWUK1N-vsXEk-203" value="" style="shape=tableRow;horizontal=0;startSize=0;swimlaneHead=0;swimlaneBody=0;fillColor=none;collapsible=0;dropTarget=0;points=[[0,0.5],[1,0.5]];portConstraint=eastwest;top=0;left=0;right=0;bottom=0;" vertex="1" parent="5gc-EdMEgWUK1N-vsXEk-154">
          <mxGeometry y="510" width="209" height="30" as="geometry" />
        </mxCell>
        <mxCell id="5gc-EdMEgWUK1N-vsXEk-204" value="FK" style="shape=partialRectangle;connectable=0;fillColor=none;top=0;left=0;bottom=0;right=0;editable=1;overflow=hidden;" vertex="1" parent="5gc-EdMEgWUK1N-vsXEk-203">
          <mxGeometry width="30" height="30" as="geometry">
            <mxRectangle width="30" height="30" as="alternateBounds" />
          </mxGeometry>
        </mxCell>
        <mxCell id="5gc-EdMEgWUK1N-vsXEk-205" value="Исполнитель" style="shape=partialRectangle;connectable=0;fillColor=none;top=0;left=0;bottom=0;right=0;align=left;spacingLeft=6;overflow=hidden;" vertex="1" parent="5gc-EdMEgWUK1N-vsXEk-203">
          <mxGeometry x="30" width="179" height="30" as="geometry">
            <mxRectangle width="179" height="30" as="alternateBounds" />
          </mxGeometry>
        </mxCell>
        <mxCell id="5gc-EdMEgWUK1N-vsXEk-206" value="" style="shape=tableRow;horizontal=0;startSize=0;swimlaneHead=0;swimlaneBody=0;fillColor=none;collapsible=0;dropTarget=0;points=[[0,0.5],[1,0.5]];portConstraint=eastwest;top=0;left=0;right=0;bottom=0;" vertex="1" parent="5gc-EdMEgWUK1N-vsXEk-154">
          <mxGeometry y="540" width="209" height="30" as="geometry" />
        </mxCell>
        <mxCell id="5gc-EdMEgWUK1N-vsXEk-207" value="FK" style="shape=partialRectangle;connectable=0;fillColor=none;top=0;left=0;bottom=0;right=0;editable=1;overflow=hidden;" vertex="1" parent="5gc-EdMEgWUK1N-vsXEk-206">
          <mxGeometry width="30" height="30" as="geometry">
            <mxRectangle width="30" height="30" as="alternateBounds" />
          </mxGeometry>
        </mxCell>
        <mxCell id="5gc-EdMEgWUK1N-vsXEk-208" value="Приоритет" style="shape=partialRectangle;connectable=0;fillColor=none;top=0;left=0;bottom=0;right=0;align=left;spacingLeft=6;overflow=hidden;" vertex="1" parent="5gc-EdMEgWUK1N-vsXEk-206">
          <mxGeometry x="30" width="179" height="30" as="geometry">
            <mxRectangle width="179" height="30" as="alternateBounds" />
          </mxGeometry>
        </mxCell>
        <mxCell id="5gc-EdMEgWUK1N-vsXEk-209" value="" style="edgeStyle=orthogonalEdgeStyle;fontSize=12;html=1;endArrow=ERone;rounded=0;exitX=0;exitY=0.5;exitDx=0;exitDy=0;endFill=0;startArrow=ERone;startFill=0;entryX=1;entryY=0.5;entryDx=0;entryDy=0;" edge="1" parent="1" source="5gc-EdMEgWUK1N-vsXEk-120" target="5gc-EdMEgWUK1N-vsXEk-179">
          <mxGeometry width="100" height="100" relative="1" as="geometry">
            <mxPoint x="900" y="1350" as="sourcePoint" />
            <mxPoint x="920" y="1180" as="targetPoint" />
          </mxGeometry>
        </mxCell>
        <mxCell id="5gc-EdMEgWUK1N-vsXEk-210" value="" style="edgeStyle=orthogonalEdgeStyle;fontSize=12;html=1;endArrow=ERoneToMany;rounded=0;exitX=0;exitY=0.5;exitDx=0;exitDy=0;entryX=0;entryY=0.5;entryDx=0;entryDy=0;" edge="1" parent="1" source="5gc-EdMEgWUK1N-vsXEk-2" target="5gc-EdMEgWUK1N-vsXEk-203">
          <mxGeometry width="100" height="100" relative="1" as="geometry">
            <mxPoint x="660" y="1840" as="sourcePoint" />
            <mxPoint x="550" y="1610" as="targetPoint" />
          </mxGeometry>
        </mxCell>
        <mxCell id="5gc-EdMEgWUK1N-vsXEk-211" value="ИсполнениеЗаявки" style="shape=table;startSize=30;container=1;collapsible=1;childLayout=tableLayout;fixedRows=1;rowLines=0;fontStyle=1;align=center;resizeLast=1;html=1;fillColor=#f8cecc;strokeColor=#b85450;" vertex="1" parent="1">
          <mxGeometry x="1359.92" y="800" width="189" height="780" as="geometry" />
        </mxCell>
        <mxCell id="5gc-EdMEgWUK1N-vsXEk-212" value="" style="shape=tableRow;horizontal=0;startSize=0;swimlaneHead=0;swimlaneBody=0;fillColor=none;collapsible=0;dropTarget=0;points=[[0,0.5],[1,0.5]];portConstraint=eastwest;top=0;left=0;right=0;bottom=1;" vertex="1" parent="5gc-EdMEgWUK1N-vsXEk-211">
          <mxGeometry y="30" width="189" height="30" as="geometry" />
        </mxCell>
        <mxCell id="5gc-EdMEgWUK1N-vsXEk-213" value="PK" style="shape=partialRectangle;connectable=0;fillColor=none;top=0;left=0;bottom=0;right=0;fontStyle=1;overflow=hidden;whiteSpace=wrap;html=1;" vertex="1" parent="5gc-EdMEgWUK1N-vsXEk-212">
          <mxGeometry width="30" height="30" as="geometry">
            <mxRectangle width="30" height="30" as="alternateBounds" />
          </mxGeometry>
        </mxCell>
        <mxCell id="5gc-EdMEgWUK1N-vsXEk-214" value="Номер" style="shape=partialRectangle;connectable=0;fillColor=none;top=0;left=0;bottom=0;right=0;align=left;spacingLeft=6;fontStyle=5;overflow=hidden;whiteSpace=wrap;html=1;" vertex="1" parent="5gc-EdMEgWUK1N-vsXEk-212">
          <mxGeometry x="30" width="159" height="30" as="geometry">
            <mxRectangle width="159" height="30" as="alternateBounds" />
          </mxGeometry>
        </mxCell>
        <mxCell id="5gc-EdMEgWUK1N-vsXEk-215" value="" style="shape=tableRow;horizontal=0;startSize=0;swimlaneHead=0;swimlaneBody=0;fillColor=none;collapsible=0;dropTarget=0;points=[[0,0.5],[1,0.5]];portConstraint=eastwest;top=0;left=0;right=0;bottom=0;" vertex="1" parent="5gc-EdMEgWUK1N-vsXEk-211">
          <mxGeometry y="60" width="189" height="30" as="geometry" />
        </mxCell>
        <mxCell id="5gc-EdMEgWUK1N-vsXEk-216" value="" style="shape=partialRectangle;connectable=0;fillColor=none;top=0;left=0;bottom=0;right=0;editable=1;overflow=hidden;whiteSpace=wrap;html=1;" vertex="1" parent="5gc-EdMEgWUK1N-vsXEk-215">
          <mxGeometry width="30" height="30" as="geometry">
            <mxRectangle width="30" height="30" as="alternateBounds" />
          </mxGeometry>
        </mxCell>
        <mxCell id="5gc-EdMEgWUK1N-vsXEk-217" value="Дата" style="shape=partialRectangle;connectable=0;fillColor=none;top=0;left=0;bottom=0;right=0;align=left;spacingLeft=6;overflow=hidden;whiteSpace=wrap;html=1;" vertex="1" parent="5gc-EdMEgWUK1N-vsXEk-215">
          <mxGeometry x="30" width="159" height="30" as="geometry">
            <mxRectangle width="159" height="30" as="alternateBounds" />
          </mxGeometry>
        </mxCell>
        <mxCell id="5gc-EdMEgWUK1N-vsXEk-218" value="" style="shape=tableRow;horizontal=0;startSize=0;swimlaneHead=0;swimlaneBody=0;fillColor=none;collapsible=0;dropTarget=0;points=[[0,0.5],[1,0.5]];portConstraint=eastwest;top=0;left=0;right=0;bottom=0;" vertex="1" parent="5gc-EdMEgWUK1N-vsXEk-211">
          <mxGeometry y="90" width="189" height="30" as="geometry" />
        </mxCell>
        <mxCell id="5gc-EdMEgWUK1N-vsXEk-219" value="FK" style="shape=partialRectangle;connectable=0;fillColor=none;top=0;left=0;bottom=0;right=0;editable=1;overflow=hidden;whiteSpace=wrap;html=1;" vertex="1" parent="5gc-EdMEgWUK1N-vsXEk-218">
          <mxGeometry width="30" height="30" as="geometry">
            <mxRectangle width="30" height="30" as="alternateBounds" />
          </mxGeometry>
        </mxCell>
        <mxCell id="5gc-EdMEgWUK1N-vsXEk-220" value="Клиент" style="shape=partialRectangle;connectable=0;fillColor=none;top=0;left=0;bottom=0;right=0;align=left;spacingLeft=6;overflow=hidden;whiteSpace=wrap;html=1;" vertex="1" parent="5gc-EdMEgWUK1N-vsXEk-218">
          <mxGeometry x="30" width="159" height="30" as="geometry">
            <mxRectangle width="159" height="30" as="alternateBounds" />
          </mxGeometry>
        </mxCell>
        <mxCell id="5gc-EdMEgWUK1N-vsXEk-221" value="" style="shape=tableRow;horizontal=0;startSize=0;swimlaneHead=0;swimlaneBody=0;fillColor=none;collapsible=0;dropTarget=0;points=[[0,0.5],[1,0.5]];portConstraint=eastwest;top=0;left=0;right=0;bottom=0;" vertex="1" parent="5gc-EdMEgWUK1N-vsXEk-211">
          <mxGeometry y="120" width="189" height="30" as="geometry" />
        </mxCell>
        <mxCell id="5gc-EdMEgWUK1N-vsXEk-222" value="FK" style="shape=partialRectangle;connectable=0;fillColor=none;top=0;left=0;bottom=0;right=0;editable=1;overflow=hidden;whiteSpace=wrap;html=1;" vertex="1" parent="5gc-EdMEgWUK1N-vsXEk-221">
          <mxGeometry width="30" height="30" as="geometry">
            <mxRectangle width="30" height="30" as="alternateBounds" />
          </mxGeometry>
        </mxCell>
        <mxCell id="5gc-EdMEgWUK1N-vsXEk-223" value="Сотрудник" style="shape=partialRectangle;connectable=0;fillColor=none;top=0;left=0;bottom=0;right=0;align=left;spacingLeft=6;overflow=hidden;whiteSpace=wrap;html=1;" vertex="1" parent="5gc-EdMEgWUK1N-vsXEk-221">
          <mxGeometry x="30" width="159" height="30" as="geometry">
            <mxRectangle width="159" height="30" as="alternateBounds" />
          </mxGeometry>
        </mxCell>
        <mxCell id="5gc-EdMEgWUK1N-vsXEk-224" value="" style="shape=tableRow;horizontal=0;startSize=0;swimlaneHead=0;swimlaneBody=0;fillColor=none;collapsible=0;dropTarget=0;points=[[0,0.5],[1,0.5]];portConstraint=eastwest;top=0;left=0;right=0;bottom=0;" vertex="1" parent="5gc-EdMEgWUK1N-vsXEk-211">
          <mxGeometry y="150" width="189" height="30" as="geometry" />
        </mxCell>
        <mxCell id="5gc-EdMEgWUK1N-vsXEk-225" value="FK" style="shape=partialRectangle;connectable=0;fillColor=none;top=0;left=0;bottom=0;right=0;editable=1;overflow=hidden;" vertex="1" parent="5gc-EdMEgWUK1N-vsXEk-224">
          <mxGeometry width="30" height="30" as="geometry">
            <mxRectangle width="30" height="30" as="alternateBounds" />
          </mxGeometry>
        </mxCell>
        <mxCell id="5gc-EdMEgWUK1N-vsXEk-226" value="СтатусЗаявки" style="shape=partialRectangle;connectable=0;fillColor=none;top=0;left=0;bottom=0;right=0;align=left;spacingLeft=6;overflow=hidden;" vertex="1" parent="5gc-EdMEgWUK1N-vsXEk-224">
          <mxGeometry x="30" width="159" height="30" as="geometry">
            <mxRectangle width="159" height="30" as="alternateBounds" />
          </mxGeometry>
        </mxCell>
        <mxCell id="5gc-EdMEgWUK1N-vsXEk-227" value="" style="shape=tableRow;horizontal=0;startSize=0;swimlaneHead=0;swimlaneBody=0;fillColor=none;collapsible=0;dropTarget=0;points=[[0,0.5],[1,0.5]];portConstraint=eastwest;top=0;left=0;right=0;bottom=0;" vertex="1" parent="5gc-EdMEgWUK1N-vsXEk-211">
          <mxGeometry y="180" width="189" height="30" as="geometry" />
        </mxCell>
        <mxCell id="5gc-EdMEgWUK1N-vsXEk-228" value="FK" style="shape=partialRectangle;connectable=0;fillColor=none;top=0;left=0;bottom=0;right=0;editable=1;overflow=hidden;" vertex="1" parent="5gc-EdMEgWUK1N-vsXEk-227">
          <mxGeometry width="30" height="30" as="geometry">
            <mxRectangle width="30" height="30" as="alternateBounds" />
          </mxGeometry>
        </mxCell>
        <mxCell id="5gc-EdMEgWUK1N-vsXEk-229" value="Оборудование" style="shape=partialRectangle;connectable=0;fillColor=none;top=0;left=0;bottom=0;right=0;align=left;spacingLeft=6;overflow=hidden;" vertex="1" parent="5gc-EdMEgWUK1N-vsXEk-227">
          <mxGeometry x="30" width="159" height="30" as="geometry">
            <mxRectangle width="159" height="30" as="alternateBounds" />
          </mxGeometry>
        </mxCell>
        <mxCell id="5gc-EdMEgWUK1N-vsXEk-230" value="" style="shape=tableRow;horizontal=0;startSize=0;swimlaneHead=0;swimlaneBody=0;fillColor=none;collapsible=0;dropTarget=0;points=[[0,0.5],[1,0.5]];portConstraint=eastwest;top=0;left=0;right=0;bottom=0;" vertex="1" parent="5gc-EdMEgWUK1N-vsXEk-211">
          <mxGeometry y="210" width="189" height="30" as="geometry" />
        </mxCell>
        <mxCell id="5gc-EdMEgWUK1N-vsXEk-231" value="FK" style="shape=partialRectangle;connectable=0;fillColor=none;top=0;left=0;bottom=0;right=0;editable=1;overflow=hidden;" vertex="1" parent="5gc-EdMEgWUK1N-vsXEk-230">
          <mxGeometry width="30" height="30" as="geometry">
            <mxRectangle width="30" height="30" as="alternateBounds" />
          </mxGeometry>
        </mxCell>
        <mxCell id="5gc-EdMEgWUK1N-vsXEk-232" value="Приоритет" style="shape=partialRectangle;connectable=0;fillColor=none;top=0;left=0;bottom=0;right=0;align=left;spacingLeft=6;overflow=hidden;" vertex="1" parent="5gc-EdMEgWUK1N-vsXEk-230">
          <mxGeometry x="30" width="159" height="30" as="geometry">
            <mxRectangle width="159" height="30" as="alternateBounds" />
          </mxGeometry>
        </mxCell>
        <mxCell id="5gc-EdMEgWUK1N-vsXEk-233" value="" style="shape=tableRow;horizontal=0;startSize=0;swimlaneHead=0;swimlaneBody=0;fillColor=none;collapsible=0;dropTarget=0;points=[[0,0.5],[1,0.5]];portConstraint=eastwest;top=0;left=0;right=0;bottom=0;" vertex="1" parent="5gc-EdMEgWUK1N-vsXEk-211">
          <mxGeometry y="240" width="189" height="30" as="geometry" />
        </mxCell>
        <mxCell id="5gc-EdMEgWUK1N-vsXEk-234" value="FK" style="shape=partialRectangle;connectable=0;fillColor=none;top=0;left=0;bottom=0;right=0;editable=1;overflow=hidden;" vertex="1" parent="5gc-EdMEgWUK1N-vsXEk-233">
          <mxGeometry width="30" height="30" as="geometry">
            <mxRectangle width="30" height="30" as="alternateBounds" />
          </mxGeometry>
        </mxCell>
        <mxCell id="5gc-EdMEgWUK1N-vsXEk-235" value="ДокументОснования" style="shape=partialRectangle;connectable=0;fillColor=none;top=0;left=0;bottom=0;right=0;align=left;spacingLeft=6;overflow=hidden;" vertex="1" parent="5gc-EdMEgWUK1N-vsXEk-233">
          <mxGeometry x="30" width="159" height="30" as="geometry">
            <mxRectangle width="159" height="30" as="alternateBounds" />
          </mxGeometry>
        </mxCell>
        <mxCell id="5gc-EdMEgWUK1N-vsXEk-236" value="" style="shape=tableRow;horizontal=0;startSize=0;swimlaneHead=0;swimlaneBody=0;fillColor=none;collapsible=0;dropTarget=0;points=[[0,0.5],[1,0.5]];portConstraint=eastwest;top=0;left=0;right=0;bottom=0;" vertex="1" parent="5gc-EdMEgWUK1N-vsXEk-211">
          <mxGeometry y="270" width="189" height="30" as="geometry" />
        </mxCell>
        <mxCell id="5gc-EdMEgWUK1N-vsXEk-237" value="" style="shape=partialRectangle;connectable=0;fillColor=none;top=0;left=0;bottom=0;right=0;editable=1;overflow=hidden;" vertex="1" parent="5gc-EdMEgWUK1N-vsXEk-236">
          <mxGeometry width="30" height="30" as="geometry">
            <mxRectangle width="30" height="30" as="alternateBounds" />
          </mxGeometry>
        </mxCell>
        <mxCell id="5gc-EdMEgWUK1N-vsXEk-238" value="ОбщаяСумма" style="shape=partialRectangle;connectable=0;fillColor=none;top=0;left=0;bottom=0;right=0;align=left;spacingLeft=6;overflow=hidden;" vertex="1" parent="5gc-EdMEgWUK1N-vsXEk-236">
          <mxGeometry x="30" width="159" height="30" as="geometry">
            <mxRectangle width="159" height="30" as="alternateBounds" />
          </mxGeometry>
        </mxCell>
        <mxCell id="5gc-EdMEgWUK1N-vsXEk-239" value="" style="shape=tableRow;horizontal=0;startSize=0;swimlaneHead=0;swimlaneBody=0;fillColor=none;collapsible=0;dropTarget=0;points=[[0,0.5],[1,0.5]];portConstraint=eastwest;top=0;left=0;right=0;bottom=0;" vertex="1" parent="5gc-EdMEgWUK1N-vsXEk-211">
          <mxGeometry y="300" width="189" height="30" as="geometry" />
        </mxCell>
        <mxCell id="5gc-EdMEgWUK1N-vsXEk-240" value="" style="shape=partialRectangle;connectable=0;fillColor=none;top=0;left=0;bottom=0;right=0;editable=1;overflow=hidden;" vertex="1" parent="5gc-EdMEgWUK1N-vsXEk-239">
          <mxGeometry width="30" height="30" as="geometry">
            <mxRectangle width="30" height="30" as="alternateBounds" />
          </mxGeometry>
        </mxCell>
        <mxCell id="5gc-EdMEgWUK1N-vsXEk-241" value="ДатаНачалаРемонта" style="shape=partialRectangle;connectable=0;fillColor=none;top=0;left=0;bottom=0;right=0;align=left;spacingLeft=6;overflow=hidden;" vertex="1" parent="5gc-EdMEgWUK1N-vsXEk-239">
          <mxGeometry x="30" width="159" height="30" as="geometry">
            <mxRectangle width="159" height="30" as="alternateBounds" />
          </mxGeometry>
        </mxCell>
        <mxCell id="5gc-EdMEgWUK1N-vsXEk-242" value="" style="shape=tableRow;horizontal=0;startSize=0;swimlaneHead=0;swimlaneBody=0;fillColor=none;collapsible=0;dropTarget=0;points=[[0,0.5],[1,0.5]];portConstraint=eastwest;top=0;left=0;right=0;bottom=0;" vertex="1" parent="5gc-EdMEgWUK1N-vsXEk-211">
          <mxGeometry y="330" width="189" height="30" as="geometry" />
        </mxCell>
        <mxCell id="5gc-EdMEgWUK1N-vsXEk-243" value="" style="shape=partialRectangle;connectable=0;fillColor=none;top=0;left=0;bottom=0;right=0;editable=1;overflow=hidden;" vertex="1" parent="5gc-EdMEgWUK1N-vsXEk-242">
          <mxGeometry width="30" height="30" as="geometry">
            <mxRectangle width="30" height="30" as="alternateBounds" />
          </mxGeometry>
        </mxCell>
        <mxCell id="5gc-EdMEgWUK1N-vsXEk-244" value="ДатаОкончанияРемонта" style="shape=partialRectangle;connectable=0;fillColor=none;top=0;left=0;bottom=0;right=0;align=left;spacingLeft=6;overflow=hidden;" vertex="1" parent="5gc-EdMEgWUK1N-vsXEk-242">
          <mxGeometry x="30" width="159" height="30" as="geometry">
            <mxRectangle width="159" height="30" as="alternateBounds" />
          </mxGeometry>
        </mxCell>
        <mxCell id="5gc-EdMEgWUK1N-vsXEk-245" style="shape=tableRow;horizontal=0;startSize=0;swimlaneHead=0;swimlaneBody=0;fillColor=#fff2cc;collapsible=0;dropTarget=0;points=[[0,0.5],[1,0.5]];portConstraint=eastwest;top=0;left=0;right=0;bottom=0;strokeColor=#d6b656;" vertex="1" parent="5gc-EdMEgWUK1N-vsXEk-211">
          <mxGeometry y="360" width="189" height="30" as="geometry" />
        </mxCell>
        <mxCell id="5gc-EdMEgWUK1N-vsXEk-246" style="shape=partialRectangle;connectable=0;fillColor=none;top=0;left=0;bottom=0;right=0;editable=1;overflow=hidden;" vertex="1" parent="5gc-EdMEgWUK1N-vsXEk-245">
          <mxGeometry width="30" height="30" as="geometry">
            <mxRectangle width="30" height="30" as="alternateBounds" />
          </mxGeometry>
        </mxCell>
        <mxCell id="5gc-EdMEgWUK1N-vsXEk-247" value="Табличная часть" style="shape=partialRectangle;connectable=0;fillColor=none;top=0;left=0;bottom=0;right=0;align=left;spacingLeft=6;overflow=hidden;" vertex="1" parent="5gc-EdMEgWUK1N-vsXEk-245">
          <mxGeometry x="30" width="159" height="30" as="geometry">
            <mxRectangle width="159" height="30" as="alternateBounds" />
          </mxGeometry>
        </mxCell>
        <mxCell id="5gc-EdMEgWUK1N-vsXEk-248" style="shape=tableRow;horizontal=0;startSize=0;swimlaneHead=0;swimlaneBody=0;collapsible=0;dropTarget=0;points=[[0,0.5],[1,0.5]];portConstraint=eastwest;top=0;left=0;right=0;bottom=0;fillColor=none;" vertex="1" parent="5gc-EdMEgWUK1N-vsXEk-211">
          <mxGeometry y="390" width="189" height="30" as="geometry" />
        </mxCell>
        <mxCell id="5gc-EdMEgWUK1N-vsXEk-249" style="shape=partialRectangle;connectable=0;fillColor=none;top=0;left=0;bottom=0;right=0;editable=1;overflow=hidden;" vertex="1" parent="5gc-EdMEgWUK1N-vsXEk-248">
          <mxGeometry width="30" height="30" as="geometry">
            <mxRectangle width="30" height="30" as="alternateBounds" />
          </mxGeometry>
        </mxCell>
        <mxCell id="5gc-EdMEgWUK1N-vsXEk-250" value="ОписаниеПроблемы" style="shape=partialRectangle;connectable=0;fillColor=none;top=0;left=0;bottom=0;right=0;align=left;spacingLeft=6;overflow=hidden;" vertex="1" parent="5gc-EdMEgWUK1N-vsXEk-248">
          <mxGeometry x="30" width="159" height="30" as="geometry">
            <mxRectangle width="159" height="30" as="alternateBounds" />
          </mxGeometry>
        </mxCell>
        <mxCell id="5gc-EdMEgWUK1N-vsXEk-251" value="" style="shape=tableRow;horizontal=0;startSize=0;swimlaneHead=0;swimlaneBody=0;fillColor=none;collapsible=0;dropTarget=0;points=[[0,0.5],[1,0.5]];portConstraint=eastwest;top=0;left=0;right=0;bottom=0;" vertex="1" parent="5gc-EdMEgWUK1N-vsXEk-211">
          <mxGeometry y="420" width="189" height="30" as="geometry" />
        </mxCell>
        <mxCell id="5gc-EdMEgWUK1N-vsXEk-252" value="FK" style="shape=partialRectangle;connectable=0;fillColor=none;top=0;left=0;bottom=0;right=0;editable=1;overflow=hidden;" vertex="1" parent="5gc-EdMEgWUK1N-vsXEk-251">
          <mxGeometry width="30" height="30" as="geometry">
            <mxRectangle width="30" height="30" as="alternateBounds" />
          </mxGeometry>
        </mxCell>
        <mxCell id="5gc-EdMEgWUK1N-vsXEk-253" value="Услуга" style="shape=partialRectangle;connectable=0;fillColor=none;top=0;left=0;bottom=0;right=0;align=left;spacingLeft=6;overflow=hidden;" vertex="1" parent="5gc-EdMEgWUK1N-vsXEk-251">
          <mxGeometry x="30" width="159" height="30" as="geometry">
            <mxRectangle width="159" height="30" as="alternateBounds" />
          </mxGeometry>
        </mxCell>
        <mxCell id="5gc-EdMEgWUK1N-vsXEk-254" value="" style="shape=tableRow;horizontal=0;startSize=0;swimlaneHead=0;swimlaneBody=0;fillColor=none;collapsible=0;dropTarget=0;points=[[0,0.5],[1,0.5]];portConstraint=eastwest;top=0;left=0;right=0;bottom=0;" vertex="1" parent="5gc-EdMEgWUK1N-vsXEk-211">
          <mxGeometry y="450" width="189" height="30" as="geometry" />
        </mxCell>
        <mxCell id="5gc-EdMEgWUK1N-vsXEk-255" value="" style="shape=partialRectangle;connectable=0;fillColor=none;top=0;left=0;bottom=0;right=0;editable=1;overflow=hidden;" vertex="1" parent="5gc-EdMEgWUK1N-vsXEk-254">
          <mxGeometry width="30" height="30" as="geometry">
            <mxRectangle width="30" height="30" as="alternateBounds" />
          </mxGeometry>
        </mxCell>
        <mxCell id="5gc-EdMEgWUK1N-vsXEk-256" value="Цена" style="shape=partialRectangle;connectable=0;fillColor=none;top=0;left=0;bottom=0;right=0;align=left;spacingLeft=6;overflow=hidden;" vertex="1" parent="5gc-EdMEgWUK1N-vsXEk-254">
          <mxGeometry x="30" width="159" height="30" as="geometry">
            <mxRectangle width="159" height="30" as="alternateBounds" />
          </mxGeometry>
        </mxCell>
        <mxCell id="5gc-EdMEgWUK1N-vsXEk-257" value="" style="shape=tableRow;horizontal=0;startSize=0;swimlaneHead=0;swimlaneBody=0;fillColor=none;collapsible=0;dropTarget=0;points=[[0,0.5],[1,0.5]];portConstraint=eastwest;top=0;left=0;right=0;bottom=0;" vertex="1" parent="5gc-EdMEgWUK1N-vsXEk-211">
          <mxGeometry y="480" width="189" height="30" as="geometry" />
        </mxCell>
        <mxCell id="5gc-EdMEgWUK1N-vsXEk-258" value="FK" style="shape=partialRectangle;connectable=0;fillColor=none;top=0;left=0;bottom=0;right=0;editable=1;overflow=hidden;" vertex="1" parent="5gc-EdMEgWUK1N-vsXEk-257">
          <mxGeometry width="30" height="30" as="geometry">
            <mxRectangle width="30" height="30" as="alternateBounds" />
          </mxGeometry>
        </mxCell>
        <mxCell id="5gc-EdMEgWUK1N-vsXEk-259" value="Исполнитель" style="shape=partialRectangle;connectable=0;fillColor=none;top=0;left=0;bottom=0;right=0;align=left;spacingLeft=6;overflow=hidden;" vertex="1" parent="5gc-EdMEgWUK1N-vsXEk-257">
          <mxGeometry x="30" width="159" height="30" as="geometry">
            <mxRectangle width="159" height="30" as="alternateBounds" />
          </mxGeometry>
        </mxCell>
        <mxCell id="5gc-EdMEgWUK1N-vsXEk-260" value="" style="shape=tableRow;horizontal=0;startSize=0;swimlaneHead=0;swimlaneBody=0;fillColor=none;collapsible=0;dropTarget=0;points=[[0,0.5],[1,0.5]];portConstraint=eastwest;top=0;left=0;right=0;bottom=0;" vertex="1" parent="5gc-EdMEgWUK1N-vsXEk-211">
          <mxGeometry y="510" width="189" height="30" as="geometry" />
        </mxCell>
        <mxCell id="5gc-EdMEgWUK1N-vsXEk-261" value="FK" style="shape=partialRectangle;connectable=0;fillColor=none;top=0;left=0;bottom=0;right=0;editable=1;overflow=hidden;" vertex="1" parent="5gc-EdMEgWUK1N-vsXEk-260">
          <mxGeometry width="30" height="30" as="geometry">
            <mxRectangle width="30" height="30" as="alternateBounds" />
          </mxGeometry>
        </mxCell>
        <mxCell id="5gc-EdMEgWUK1N-vsXEk-262" value="Приоритет" style="shape=partialRectangle;connectable=0;fillColor=none;top=0;left=0;bottom=0;right=0;align=left;spacingLeft=6;overflow=hidden;" vertex="1" parent="5gc-EdMEgWUK1N-vsXEk-260">
          <mxGeometry x="30" width="159" height="30" as="geometry">
            <mxRectangle width="159" height="30" as="alternateBounds" />
          </mxGeometry>
        </mxCell>
        <mxCell id="5gc-EdMEgWUK1N-vsXEk-263" value="" style="shape=tableRow;horizontal=0;startSize=0;swimlaneHead=0;swimlaneBody=0;fillColor=#fff2cc;collapsible=0;dropTarget=0;points=[[0,0.5],[1,0.5]];portConstraint=eastwest;top=0;left=0;right=0;bottom=0;strokeColor=#d6b656;" vertex="1" parent="5gc-EdMEgWUK1N-vsXEk-211">
          <mxGeometry y="540" width="189" height="30" as="geometry" />
        </mxCell>
        <mxCell id="5gc-EdMEgWUK1N-vsXEk-264" value="" style="shape=partialRectangle;connectable=0;fillColor=none;top=0;left=0;bottom=0;right=0;editable=1;overflow=hidden;" vertex="1" parent="5gc-EdMEgWUK1N-vsXEk-263">
          <mxGeometry width="30" height="30" as="geometry">
            <mxRectangle width="30" height="30" as="alternateBounds" />
          </mxGeometry>
        </mxCell>
        <mxCell id="5gc-EdMEgWUK1N-vsXEk-265" value="ТабличнаяЧасть" style="shape=partialRectangle;connectable=0;fillColor=none;top=0;left=0;bottom=0;right=0;align=left;spacingLeft=6;overflow=hidden;" vertex="1" parent="5gc-EdMEgWUK1N-vsXEk-263">
          <mxGeometry x="30" width="159" height="30" as="geometry">
            <mxRectangle width="159" height="30" as="alternateBounds" />
          </mxGeometry>
        </mxCell>
        <mxCell id="5gc-EdMEgWUK1N-vsXEk-266" style="shape=tableRow;horizontal=0;startSize=0;swimlaneHead=0;swimlaneBody=0;fillColor=none;collapsible=0;dropTarget=0;points=[[0,0.5],[1,0.5]];portConstraint=eastwest;top=0;left=0;right=0;bottom=0;" vertex="1" parent="5gc-EdMEgWUK1N-vsXEk-211">
          <mxGeometry y="570" width="189" height="30" as="geometry" />
        </mxCell>
        <mxCell id="5gc-EdMEgWUK1N-vsXEk-267" style="shape=partialRectangle;connectable=0;fillColor=none;top=0;left=0;bottom=0;right=0;editable=1;overflow=hidden;" vertex="1" parent="5gc-EdMEgWUK1N-vsXEk-266">
          <mxGeometry width="30" height="30" as="geometry">
            <mxRectangle width="30" height="30" as="alternateBounds" />
          </mxGeometry>
        </mxCell>
        <mxCell id="5gc-EdMEgWUK1N-vsXEk-268" value="ЗаказЗапчастей" style="shape=partialRectangle;connectable=0;fillColor=none;top=0;left=0;bottom=0;right=0;align=left;spacingLeft=6;overflow=hidden;" vertex="1" parent="5gc-EdMEgWUK1N-vsXEk-266">
          <mxGeometry x="30" width="159" height="30" as="geometry">
            <mxRectangle width="159" height="30" as="alternateBounds" />
          </mxGeometry>
        </mxCell>
        <mxCell id="5gc-EdMEgWUK1N-vsXEk-269" value="" style="shape=tableRow;horizontal=0;startSize=0;swimlaneHead=0;swimlaneBody=0;fillColor=none;collapsible=0;dropTarget=0;points=[[0,0.5],[1,0.5]];portConstraint=eastwest;top=0;left=0;right=0;bottom=0;" vertex="1" parent="5gc-EdMEgWUK1N-vsXEk-211">
          <mxGeometry y="600" width="189" height="30" as="geometry" />
        </mxCell>
        <mxCell id="5gc-EdMEgWUK1N-vsXEk-270" value="FK" style="shape=partialRectangle;connectable=0;fillColor=none;top=0;left=0;bottom=0;right=0;editable=1;overflow=hidden;" vertex="1" parent="5gc-EdMEgWUK1N-vsXEk-269">
          <mxGeometry width="30" height="30" as="geometry">
            <mxRectangle width="30" height="30" as="alternateBounds" />
          </mxGeometry>
        </mxCell>
        <mxCell id="5gc-EdMEgWUK1N-vsXEk-271" value="Запчасти" style="shape=partialRectangle;connectable=0;fillColor=none;top=0;left=0;bottom=0;right=0;align=left;spacingLeft=6;overflow=hidden;" vertex="1" parent="5gc-EdMEgWUK1N-vsXEk-269">
          <mxGeometry x="30" width="159" height="30" as="geometry">
            <mxRectangle width="159" height="30" as="alternateBounds" />
          </mxGeometry>
        </mxCell>
        <mxCell id="5gc-EdMEgWUK1N-vsXEk-272" value="" style="shape=tableRow;horizontal=0;startSize=0;swimlaneHead=0;swimlaneBody=0;fillColor=none;collapsible=0;dropTarget=0;points=[[0,0.5],[1,0.5]];portConstraint=eastwest;top=0;left=0;right=0;bottom=0;" vertex="1" parent="5gc-EdMEgWUK1N-vsXEk-211">
          <mxGeometry y="630" width="189" height="30" as="geometry" />
        </mxCell>
        <mxCell id="5gc-EdMEgWUK1N-vsXEk-273" value="" style="shape=partialRectangle;connectable=0;fillColor=none;top=0;left=0;bottom=0;right=0;editable=1;overflow=hidden;" vertex="1" parent="5gc-EdMEgWUK1N-vsXEk-272">
          <mxGeometry width="30" height="30" as="geometry">
            <mxRectangle width="30" height="30" as="alternateBounds" />
          </mxGeometry>
        </mxCell>
        <mxCell id="5gc-EdMEgWUK1N-vsXEk-274" value="Количество" style="shape=partialRectangle;connectable=0;fillColor=none;top=0;left=0;bottom=0;right=0;align=left;spacingLeft=6;overflow=hidden;" vertex="1" parent="5gc-EdMEgWUK1N-vsXEk-272">
          <mxGeometry x="30" width="159" height="30" as="geometry">
            <mxRectangle width="159" height="30" as="alternateBounds" />
          </mxGeometry>
        </mxCell>
        <mxCell id="5gc-EdMEgWUK1N-vsXEk-275" value="" style="shape=tableRow;horizontal=0;startSize=0;swimlaneHead=0;swimlaneBody=0;fillColor=none;collapsible=0;dropTarget=0;points=[[0,0.5],[1,0.5]];portConstraint=eastwest;top=0;left=0;right=0;bottom=0;" vertex="1" parent="5gc-EdMEgWUK1N-vsXEk-211">
          <mxGeometry y="660" width="189" height="30" as="geometry" />
        </mxCell>
        <mxCell id="5gc-EdMEgWUK1N-vsXEk-276" value="" style="shape=partialRectangle;connectable=0;fillColor=none;top=0;left=0;bottom=0;right=0;editable=1;overflow=hidden;" vertex="1" parent="5gc-EdMEgWUK1N-vsXEk-275">
          <mxGeometry width="30" height="30" as="geometry">
            <mxRectangle width="30" height="30" as="alternateBounds" />
          </mxGeometry>
        </mxCell>
        <mxCell id="5gc-EdMEgWUK1N-vsXEk-277" value="Цена" style="shape=partialRectangle;connectable=0;fillColor=none;top=0;left=0;bottom=0;right=0;align=left;spacingLeft=6;overflow=hidden;" vertex="1" parent="5gc-EdMEgWUK1N-vsXEk-275">
          <mxGeometry x="30" width="159" height="30" as="geometry">
            <mxRectangle width="159" height="30" as="alternateBounds" />
          </mxGeometry>
        </mxCell>
        <mxCell id="5gc-EdMEgWUK1N-vsXEk-278" value="" style="shape=tableRow;horizontal=0;startSize=0;swimlaneHead=0;swimlaneBody=0;fillColor=none;collapsible=0;dropTarget=0;points=[[0,0.5],[1,0.5]];portConstraint=eastwest;top=0;left=0;right=0;bottom=0;" vertex="1" parent="5gc-EdMEgWUK1N-vsXEk-211">
          <mxGeometry y="690" width="189" height="30" as="geometry" />
        </mxCell>
        <mxCell id="5gc-EdMEgWUK1N-vsXEk-279" value="" style="shape=partialRectangle;connectable=0;fillColor=none;top=0;left=0;bottom=0;right=0;editable=1;overflow=hidden;" vertex="1" parent="5gc-EdMEgWUK1N-vsXEk-278">
          <mxGeometry width="30" height="30" as="geometry">
            <mxRectangle width="30" height="30" as="alternateBounds" />
          </mxGeometry>
        </mxCell>
        <mxCell id="5gc-EdMEgWUK1N-vsXEk-280" value="Сумма" style="shape=partialRectangle;connectable=0;fillColor=none;top=0;left=0;bottom=0;right=0;align=left;spacingLeft=6;overflow=hidden;" vertex="1" parent="5gc-EdMEgWUK1N-vsXEk-278">
          <mxGeometry x="30" width="159" height="30" as="geometry">
            <mxRectangle width="159" height="30" as="alternateBounds" />
          </mxGeometry>
        </mxCell>
        <mxCell id="5gc-EdMEgWUK1N-vsXEk-281" value="" style="shape=tableRow;horizontal=0;startSize=0;swimlaneHead=0;swimlaneBody=0;fillColor=none;collapsible=0;dropTarget=0;points=[[0,0.5],[1,0.5]];portConstraint=eastwest;top=0;left=0;right=0;bottom=0;" vertex="1" parent="5gc-EdMEgWUK1N-vsXEk-211">
          <mxGeometry y="720" width="189" height="30" as="geometry" />
        </mxCell>
        <mxCell id="5gc-EdMEgWUK1N-vsXEk-282" value="FK" style="shape=partialRectangle;connectable=0;fillColor=none;top=0;left=0;bottom=0;right=0;editable=1;overflow=hidden;" vertex="1" parent="5gc-EdMEgWUK1N-vsXEk-281">
          <mxGeometry width="30" height="30" as="geometry">
            <mxRectangle width="30" height="30" as="alternateBounds" />
          </mxGeometry>
        </mxCell>
        <mxCell id="5gc-EdMEgWUK1N-vsXEk-283" value="ЭтапыВыполнения" style="shape=partialRectangle;connectable=0;fillColor=none;top=0;left=0;bottom=0;right=0;align=left;spacingLeft=6;overflow=hidden;" vertex="1" parent="5gc-EdMEgWUK1N-vsXEk-281">
          <mxGeometry x="30" width="159" height="30" as="geometry">
            <mxRectangle width="159" height="30" as="alternateBounds" />
          </mxGeometry>
        </mxCell>
        <mxCell id="5gc-EdMEgWUK1N-vsXEk-284" value="" style="shape=tableRow;horizontal=0;startSize=0;swimlaneHead=0;swimlaneBody=0;fillColor=none;collapsible=0;dropTarget=0;points=[[0,0.5],[1,0.5]];portConstraint=eastwest;top=0;left=0;right=0;bottom=0;" vertex="1" parent="5gc-EdMEgWUK1N-vsXEk-211">
          <mxGeometry y="750" width="189" height="30" as="geometry" />
        </mxCell>
        <mxCell id="5gc-EdMEgWUK1N-vsXEk-285" value="" style="shape=partialRectangle;connectable=0;fillColor=none;top=0;left=0;bottom=0;right=0;editable=1;overflow=hidden;" vertex="1" parent="5gc-EdMEgWUK1N-vsXEk-284">
          <mxGeometry width="30" height="30" as="geometry">
            <mxRectangle width="30" height="30" as="alternateBounds" />
          </mxGeometry>
        </mxCell>
        <mxCell id="5gc-EdMEgWUK1N-vsXEk-286" value="Комментарий" style="shape=partialRectangle;connectable=0;fillColor=none;top=0;left=0;bottom=0;right=0;align=left;spacingLeft=6;overflow=hidden;" vertex="1" parent="5gc-EdMEgWUK1N-vsXEk-284">
          <mxGeometry x="30" width="159" height="30" as="geometry">
            <mxRectangle width="159" height="30" as="alternateBounds" />
          </mxGeometry>
        </mxCell>
        <mxCell id="5gc-EdMEgWUK1N-vsXEk-287" value="" style="edgeStyle=orthogonalEdgeStyle;fontSize=12;html=1;endArrow=ERone;rounded=0;exitX=1;exitY=0.5;exitDx=0;exitDy=0;entryX=0;entryY=0.5;entryDx=0;entryDy=0;startArrow=ERone;startFill=0;endFill=0;" edge="1" parent="1" source="5gc-EdMEgWUK1N-vsXEk-155" target="5gc-EdMEgWUK1N-vsXEk-233">
          <mxGeometry width="100" height="100" relative="1" as="geometry">
            <mxPoint x="970" y="970" as="sourcePoint" />
            <mxPoint x="1070" y="870" as="targetPoint" />
          </mxGeometry>
        </mxCell>
        <mxCell id="5gc-EdMEgWUK1N-vsXEk-288" value="РегистрЦенТипОборудование" style="shape=table;startSize=30;container=1;collapsible=1;childLayout=tableLayout;fixedRows=1;rowLines=0;fontStyle=1;align=center;resizeLast=1;html=1;fillColor=#f8cecc;strokeColor=#b85450;" vertex="1" parent="1">
          <mxGeometry x="2000" y="1520" width="210" height="150" as="geometry" />
        </mxCell>
        <mxCell id="5gc-EdMEgWUK1N-vsXEk-289" value="" style="shape=tableRow;horizontal=0;startSize=0;swimlaneHead=0;swimlaneBody=0;fillColor=none;collapsible=0;dropTarget=0;points=[[0,0.5],[1,0.5]];portConstraint=eastwest;top=0;left=0;right=0;bottom=1;" vertex="1" parent="5gc-EdMEgWUK1N-vsXEk-288">
          <mxGeometry y="30" width="210" height="30" as="geometry" />
        </mxCell>
        <mxCell id="5gc-EdMEgWUK1N-vsXEk-290" value="PK" style="shape=partialRectangle;connectable=0;fillColor=none;top=0;left=0;bottom=0;right=0;fontStyle=1;overflow=hidden;whiteSpace=wrap;html=1;" vertex="1" parent="5gc-EdMEgWUK1N-vsXEk-289">
          <mxGeometry width="30" height="30" as="geometry">
            <mxRectangle width="30" height="30" as="alternateBounds" />
          </mxGeometry>
        </mxCell>
        <mxCell id="5gc-EdMEgWUK1N-vsXEk-291" value="Ссылка" style="shape=partialRectangle;connectable=0;fillColor=none;top=0;left=0;bottom=0;right=0;align=left;spacingLeft=6;fontStyle=5;overflow=hidden;whiteSpace=wrap;html=1;" vertex="1" parent="5gc-EdMEgWUK1N-vsXEk-289">
          <mxGeometry x="30" width="180" height="30" as="geometry">
            <mxRectangle width="180" height="30" as="alternateBounds" />
          </mxGeometry>
        </mxCell>
        <mxCell id="5gc-EdMEgWUK1N-vsXEk-292" value="" style="shape=tableRow;horizontal=0;startSize=0;swimlaneHead=0;swimlaneBody=0;fillColor=none;collapsible=0;dropTarget=0;points=[[0,0.5],[1,0.5]];portConstraint=eastwest;top=0;left=0;right=0;bottom=0;" vertex="1" parent="5gc-EdMEgWUK1N-vsXEk-288">
          <mxGeometry y="60" width="210" height="30" as="geometry" />
        </mxCell>
        <mxCell id="5gc-EdMEgWUK1N-vsXEk-293" value="FK" style="shape=partialRectangle;connectable=0;fillColor=none;top=0;left=0;bottom=0;right=0;editable=1;overflow=hidden;whiteSpace=wrap;html=1;" vertex="1" parent="5gc-EdMEgWUK1N-vsXEk-292">
          <mxGeometry width="30" height="30" as="geometry">
            <mxRectangle width="30" height="30" as="alternateBounds" />
          </mxGeometry>
        </mxCell>
        <mxCell id="5gc-EdMEgWUK1N-vsXEk-294" value="Оборудование" style="shape=partialRectangle;connectable=0;fillColor=none;top=0;left=0;bottom=0;right=0;align=left;spacingLeft=6;overflow=hidden;whiteSpace=wrap;html=1;" vertex="1" parent="5gc-EdMEgWUK1N-vsXEk-292">
          <mxGeometry x="30" width="180" height="30" as="geometry">
            <mxRectangle width="180" height="30" as="alternateBounds" />
          </mxGeometry>
        </mxCell>
        <mxCell id="5gc-EdMEgWUK1N-vsXEk-295" value="" style="shape=tableRow;horizontal=0;startSize=0;swimlaneHead=0;swimlaneBody=0;fillColor=none;collapsible=0;dropTarget=0;points=[[0,0.5],[1,0.5]];portConstraint=eastwest;top=0;left=0;right=0;bottom=0;" vertex="1" parent="5gc-EdMEgWUK1N-vsXEk-288">
          <mxGeometry y="90" width="210" height="30" as="geometry" />
        </mxCell>
        <mxCell id="5gc-EdMEgWUK1N-vsXEk-296" value="FK" style="shape=partialRectangle;connectable=0;fillColor=none;top=0;left=0;bottom=0;right=0;editable=1;overflow=hidden;whiteSpace=wrap;html=1;" vertex="1" parent="5gc-EdMEgWUK1N-vsXEk-295">
          <mxGeometry width="30" height="30" as="geometry">
            <mxRectangle width="30" height="30" as="alternateBounds" />
          </mxGeometry>
        </mxCell>
        <mxCell id="5gc-EdMEgWUK1N-vsXEk-297" value="Услуга" style="shape=partialRectangle;connectable=0;fillColor=none;top=0;left=0;bottom=0;right=0;align=left;spacingLeft=6;overflow=hidden;whiteSpace=wrap;html=1;" vertex="1" parent="5gc-EdMEgWUK1N-vsXEk-295">
          <mxGeometry x="30" width="180" height="30" as="geometry">
            <mxRectangle width="180" height="30" as="alternateBounds" />
          </mxGeometry>
        </mxCell>
        <mxCell id="5gc-EdMEgWUK1N-vsXEk-298" value="" style="shape=tableRow;horizontal=0;startSize=0;swimlaneHead=0;swimlaneBody=0;fillColor=none;collapsible=0;dropTarget=0;points=[[0,0.5],[1,0.5]];portConstraint=eastwest;top=0;left=0;right=0;bottom=0;" vertex="1" parent="5gc-EdMEgWUK1N-vsXEk-288">
          <mxGeometry y="120" width="210" height="30" as="geometry" />
        </mxCell>
        <mxCell id="5gc-EdMEgWUK1N-vsXEk-299" value="" style="shape=partialRectangle;connectable=0;fillColor=none;top=0;left=0;bottom=0;right=0;editable=1;overflow=hidden;whiteSpace=wrap;html=1;" vertex="1" parent="5gc-EdMEgWUK1N-vsXEk-298">
          <mxGeometry width="30" height="30" as="geometry">
            <mxRectangle width="30" height="30" as="alternateBounds" />
          </mxGeometry>
        </mxCell>
        <mxCell id="5gc-EdMEgWUK1N-vsXEk-300" value="Цена" style="shape=partialRectangle;connectable=0;fillColor=none;top=0;left=0;bottom=0;right=0;align=left;spacingLeft=6;overflow=hidden;whiteSpace=wrap;html=1;" vertex="1" parent="5gc-EdMEgWUK1N-vsXEk-298">
          <mxGeometry x="30" width="180" height="30" as="geometry">
            <mxRectangle width="180" height="30" as="alternateBounds" />
          </mxGeometry>
        </mxCell>
        <mxCell id="5gc-EdMEgWUK1N-vsXEk-301" value="УстановлениеЦенНаУслуги" style="shape=table;startSize=30;container=1;collapsible=1;childLayout=tableLayout;fixedRows=1;rowLines=0;fontStyle=1;align=center;resizeLast=1;html=1;fillColor=#f8cecc;strokeColor=#b85450;" vertex="1" parent="1">
          <mxGeometry x="1680" y="1470" width="180" height="210" as="geometry" />
        </mxCell>
        <mxCell id="5gc-EdMEgWUK1N-vsXEk-302" value="" style="shape=tableRow;horizontal=0;startSize=0;swimlaneHead=0;swimlaneBody=0;fillColor=none;collapsible=0;dropTarget=0;points=[[0,0.5],[1,0.5]];portConstraint=eastwest;top=0;left=0;right=0;bottom=1;" vertex="1" parent="5gc-EdMEgWUK1N-vsXEk-301">
          <mxGeometry y="30" width="180" height="30" as="geometry" />
        </mxCell>
        <mxCell id="5gc-EdMEgWUK1N-vsXEk-303" value="PK" style="shape=partialRectangle;connectable=0;fillColor=none;top=0;left=0;bottom=0;right=0;fontStyle=1;overflow=hidden;whiteSpace=wrap;html=1;" vertex="1" parent="5gc-EdMEgWUK1N-vsXEk-302">
          <mxGeometry width="30" height="30" as="geometry">
            <mxRectangle width="30" height="30" as="alternateBounds" />
          </mxGeometry>
        </mxCell>
        <mxCell id="5gc-EdMEgWUK1N-vsXEk-304" value="Номер" style="shape=partialRectangle;connectable=0;fillColor=none;top=0;left=0;bottom=0;right=0;align=left;spacingLeft=6;fontStyle=5;overflow=hidden;whiteSpace=wrap;html=1;" vertex="1" parent="5gc-EdMEgWUK1N-vsXEk-302">
          <mxGeometry x="30" width="150" height="30" as="geometry">
            <mxRectangle width="150" height="30" as="alternateBounds" />
          </mxGeometry>
        </mxCell>
        <mxCell id="5gc-EdMEgWUK1N-vsXEk-305" value="" style="shape=tableRow;horizontal=0;startSize=0;swimlaneHead=0;swimlaneBody=0;fillColor=none;collapsible=0;dropTarget=0;points=[[0,0.5],[1,0.5]];portConstraint=eastwest;top=0;left=0;right=0;bottom=0;" vertex="1" parent="5gc-EdMEgWUK1N-vsXEk-301">
          <mxGeometry y="60" width="180" height="30" as="geometry" />
        </mxCell>
        <mxCell id="5gc-EdMEgWUK1N-vsXEk-306" value="FK" style="shape=partialRectangle;connectable=0;fillColor=none;top=0;left=0;bottom=0;right=0;editable=1;overflow=hidden;whiteSpace=wrap;html=1;" vertex="1" parent="5gc-EdMEgWUK1N-vsXEk-305">
          <mxGeometry width="30" height="30" as="geometry">
            <mxRectangle width="30" height="30" as="alternateBounds" />
          </mxGeometry>
        </mxCell>
        <mxCell id="5gc-EdMEgWUK1N-vsXEk-307" value="Сотрудник" style="shape=partialRectangle;connectable=0;fillColor=none;top=0;left=0;bottom=0;right=0;align=left;spacingLeft=6;overflow=hidden;whiteSpace=wrap;html=1;" vertex="1" parent="5gc-EdMEgWUK1N-vsXEk-305">
          <mxGeometry x="30" width="150" height="30" as="geometry">
            <mxRectangle width="150" height="30" as="alternateBounds" />
          </mxGeometry>
        </mxCell>
        <mxCell id="5gc-EdMEgWUK1N-vsXEk-308" value="" style="shape=tableRow;horizontal=0;startSize=0;swimlaneHead=0;swimlaneBody=0;fillColor=#fff2cc;collapsible=0;dropTarget=0;points=[[0,0.5],[1,0.5]];portConstraint=eastwest;top=0;left=0;right=0;bottom=0;strokeColor=#d6b656;" vertex="1" parent="5gc-EdMEgWUK1N-vsXEk-301">
          <mxGeometry y="90" width="180" height="30" as="geometry" />
        </mxCell>
        <mxCell id="5gc-EdMEgWUK1N-vsXEk-309" value="" style="shape=partialRectangle;connectable=0;fillColor=none;top=0;left=0;bottom=0;right=0;editable=1;overflow=hidden;whiteSpace=wrap;html=1;" vertex="1" parent="5gc-EdMEgWUK1N-vsXEk-308">
          <mxGeometry width="30" height="30" as="geometry">
            <mxRectangle width="30" height="30" as="alternateBounds" />
          </mxGeometry>
        </mxCell>
        <mxCell id="5gc-EdMEgWUK1N-vsXEk-310" value="Табличная часть" style="shape=partialRectangle;connectable=0;fillColor=none;top=0;left=0;bottom=0;right=0;align=left;spacingLeft=6;overflow=hidden;whiteSpace=wrap;html=1;" vertex="1" parent="5gc-EdMEgWUK1N-vsXEk-308">
          <mxGeometry x="30" width="150" height="30" as="geometry">
            <mxRectangle width="150" height="30" as="alternateBounds" />
          </mxGeometry>
        </mxCell>
        <mxCell id="5gc-EdMEgWUK1N-vsXEk-311" value="" style="shape=tableRow;horizontal=0;startSize=0;swimlaneHead=0;swimlaneBody=0;fillColor=none;collapsible=0;dropTarget=0;points=[[0,0.5],[1,0.5]];portConstraint=eastwest;top=0;left=0;right=0;bottom=0;" vertex="1" parent="5gc-EdMEgWUK1N-vsXEk-301">
          <mxGeometry y="120" width="180" height="30" as="geometry" />
        </mxCell>
        <mxCell id="5gc-EdMEgWUK1N-vsXEk-312" value="FK" style="shape=partialRectangle;connectable=0;fillColor=none;top=0;left=0;bottom=0;right=0;editable=1;overflow=hidden;whiteSpace=wrap;html=1;" vertex="1" parent="5gc-EdMEgWUK1N-vsXEk-311">
          <mxGeometry width="30" height="30" as="geometry">
            <mxRectangle width="30" height="30" as="alternateBounds" />
          </mxGeometry>
        </mxCell>
        <mxCell id="5gc-EdMEgWUK1N-vsXEk-313" value="ТипОборудования" style="shape=partialRectangle;connectable=0;fillColor=none;top=0;left=0;bottom=0;right=0;align=left;spacingLeft=6;overflow=hidden;whiteSpace=wrap;html=1;" vertex="1" parent="5gc-EdMEgWUK1N-vsXEk-311">
          <mxGeometry x="30" width="150" height="30" as="geometry">
            <mxRectangle width="150" height="30" as="alternateBounds" />
          </mxGeometry>
        </mxCell>
        <mxCell id="5gc-EdMEgWUK1N-vsXEk-314" value="" style="shape=tableRow;horizontal=0;startSize=0;swimlaneHead=0;swimlaneBody=0;fillColor=none;collapsible=0;dropTarget=0;points=[[0,0.5],[1,0.5]];portConstraint=eastwest;top=0;left=0;right=0;bottom=0;" vertex="1" parent="5gc-EdMEgWUK1N-vsXEk-301">
          <mxGeometry y="150" width="180" height="30" as="geometry" />
        </mxCell>
        <mxCell id="5gc-EdMEgWUK1N-vsXEk-315" value="FK" style="shape=partialRectangle;connectable=0;fillColor=none;top=0;left=0;bottom=0;right=0;editable=1;overflow=hidden;" vertex="1" parent="5gc-EdMEgWUK1N-vsXEk-314">
          <mxGeometry width="30" height="30" as="geometry">
            <mxRectangle width="30" height="30" as="alternateBounds" />
          </mxGeometry>
        </mxCell>
        <mxCell id="5gc-EdMEgWUK1N-vsXEk-316" value="Услуга" style="shape=partialRectangle;connectable=0;fillColor=none;top=0;left=0;bottom=0;right=0;align=left;spacingLeft=6;overflow=hidden;" vertex="1" parent="5gc-EdMEgWUK1N-vsXEk-314">
          <mxGeometry x="30" width="150" height="30" as="geometry">
            <mxRectangle width="150" height="30" as="alternateBounds" />
          </mxGeometry>
        </mxCell>
        <mxCell id="5gc-EdMEgWUK1N-vsXEk-317" value="" style="shape=tableRow;horizontal=0;startSize=0;swimlaneHead=0;swimlaneBody=0;fillColor=none;collapsible=0;dropTarget=0;points=[[0,0.5],[1,0.5]];portConstraint=eastwest;top=0;left=0;right=0;bottom=0;" vertex="1" parent="5gc-EdMEgWUK1N-vsXEk-301">
          <mxGeometry y="180" width="180" height="30" as="geometry" />
        </mxCell>
        <mxCell id="5gc-EdMEgWUK1N-vsXEk-318" value="" style="shape=partialRectangle;connectable=0;fillColor=none;top=0;left=0;bottom=0;right=0;editable=1;overflow=hidden;" vertex="1" parent="5gc-EdMEgWUK1N-vsXEk-317">
          <mxGeometry width="30" height="30" as="geometry">
            <mxRectangle width="30" height="30" as="alternateBounds" />
          </mxGeometry>
        </mxCell>
        <mxCell id="5gc-EdMEgWUK1N-vsXEk-319" value="Цена" style="shape=partialRectangle;connectable=0;fillColor=none;top=0;left=0;bottom=0;right=0;align=left;spacingLeft=6;overflow=hidden;" vertex="1" parent="5gc-EdMEgWUK1N-vsXEk-317">
          <mxGeometry x="30" width="150" height="30" as="geometry">
            <mxRectangle width="150" height="30" as="alternateBounds" />
          </mxGeometry>
        </mxCell>
        <mxCell id="5gc-EdMEgWUK1N-vsXEk-320" value="" style="edgeStyle=orthogonalEdgeStyle;fontSize=12;html=1;endArrow=ERoneToMany;rounded=0;exitX=1;exitY=0.5;exitDx=0;exitDy=0;entryX=1;entryY=0.5;entryDx=0;entryDy=0;" edge="1" parent="1" source="5gc-EdMEgWUK1N-vsXEk-75" target="5gc-EdMEgWUK1N-vsXEk-314">
          <mxGeometry width="100" height="100" relative="1" as="geometry">
            <mxPoint x="1780" y="2110" as="sourcePoint" />
            <mxPoint x="1880" y="2010" as="targetPoint" />
          </mxGeometry>
        </mxCell>
        <mxCell id="5gc-EdMEgWUK1N-vsXEk-321" value="" style="edgeStyle=orthogonalEdgeStyle;fontSize=12;html=1;endArrow=ERone;startArrow=ERone;rounded=0;exitX=1;exitY=0.5;exitDx=0;exitDy=0;entryX=0;entryY=0.5;entryDx=0;entryDy=0;startFill=0;endFill=0;" edge="1" parent="1" source="5gc-EdMEgWUK1N-vsXEk-302" target="5gc-EdMEgWUK1N-vsXEk-289">
          <mxGeometry width="100" height="100" relative="1" as="geometry">
            <mxPoint x="1880" y="1480" as="sourcePoint" />
            <mxPoint x="1980" y="1380" as="targetPoint" />
          </mxGeometry>
        </mxCell>
        <mxCell id="5gc-EdMEgWUK1N-vsXEk-322" value="Заказ комплектующие" style="shape=table;startSize=30;container=1;collapsible=1;childLayout=tableLayout;fixedRows=1;rowLines=0;fontStyle=1;align=center;resizeLast=1;html=1;fillColor=#f8cecc;strokeColor=#b85450;" vertex="1" parent="1">
          <mxGeometry x="1620" y="605" width="180" height="350" as="geometry" />
        </mxCell>
        <mxCell id="5gc-EdMEgWUK1N-vsXEk-323" value="" style="shape=tableRow;horizontal=0;startSize=0;swimlaneHead=0;swimlaneBody=0;fillColor=none;collapsible=0;dropTarget=0;points=[[0,0.5],[1,0.5]];portConstraint=eastwest;top=0;left=0;right=0;bottom=1;" vertex="1" parent="5gc-EdMEgWUK1N-vsXEk-322">
          <mxGeometry y="30" width="180" height="30" as="geometry" />
        </mxCell>
        <mxCell id="5gc-EdMEgWUK1N-vsXEk-324" value="PK" style="shape=partialRectangle;connectable=0;fillColor=none;top=0;left=0;bottom=0;right=0;fontStyle=1;overflow=hidden;whiteSpace=wrap;html=1;" vertex="1" parent="5gc-EdMEgWUK1N-vsXEk-323">
          <mxGeometry width="30" height="30" as="geometry">
            <mxRectangle width="30" height="30" as="alternateBounds" />
          </mxGeometry>
        </mxCell>
        <mxCell id="5gc-EdMEgWUK1N-vsXEk-325" value="Номер" style="shape=partialRectangle;connectable=0;fillColor=none;top=0;left=0;bottom=0;right=0;align=left;spacingLeft=6;fontStyle=5;overflow=hidden;whiteSpace=wrap;html=1;" vertex="1" parent="5gc-EdMEgWUK1N-vsXEk-323">
          <mxGeometry x="30" width="150" height="30" as="geometry">
            <mxRectangle width="150" height="30" as="alternateBounds" />
          </mxGeometry>
        </mxCell>
        <mxCell id="5gc-EdMEgWUK1N-vsXEk-326" value="" style="shape=tableRow;horizontal=0;startSize=0;swimlaneHead=0;swimlaneBody=0;fillColor=none;collapsible=0;dropTarget=0;points=[[0,0.5],[1,0.5]];portConstraint=eastwest;top=0;left=0;right=0;bottom=0;" vertex="1" parent="5gc-EdMEgWUK1N-vsXEk-322">
          <mxGeometry y="60" width="180" height="30" as="geometry" />
        </mxCell>
        <mxCell id="5gc-EdMEgWUK1N-vsXEk-327" value="" style="shape=partialRectangle;connectable=0;fillColor=none;top=0;left=0;bottom=0;right=0;editable=1;overflow=hidden;whiteSpace=wrap;html=1;" vertex="1" parent="5gc-EdMEgWUK1N-vsXEk-326">
          <mxGeometry width="30" height="30" as="geometry">
            <mxRectangle width="30" height="30" as="alternateBounds" />
          </mxGeometry>
        </mxCell>
        <mxCell id="5gc-EdMEgWUK1N-vsXEk-328" value="Дата" style="shape=partialRectangle;connectable=0;fillColor=none;top=0;left=0;bottom=0;right=0;align=left;spacingLeft=6;overflow=hidden;whiteSpace=wrap;html=1;" vertex="1" parent="5gc-EdMEgWUK1N-vsXEk-326">
          <mxGeometry x="30" width="150" height="30" as="geometry">
            <mxRectangle width="150" height="30" as="alternateBounds" />
          </mxGeometry>
        </mxCell>
        <mxCell id="5gc-EdMEgWUK1N-vsXEk-329" value="" style="shape=tableRow;horizontal=0;startSize=0;swimlaneHead=0;swimlaneBody=0;fillColor=none;collapsible=0;dropTarget=0;points=[[0,0.5],[1,0.5]];portConstraint=eastwest;top=0;left=0;right=0;bottom=0;" vertex="1" parent="5gc-EdMEgWUK1N-vsXEk-322">
          <mxGeometry y="90" width="180" height="30" as="geometry" />
        </mxCell>
        <mxCell id="5gc-EdMEgWUK1N-vsXEk-330" value="FK" style="shape=partialRectangle;connectable=0;fillColor=none;top=0;left=0;bottom=0;right=0;editable=1;overflow=hidden;whiteSpace=wrap;html=1;" vertex="1" parent="5gc-EdMEgWUK1N-vsXEk-329">
          <mxGeometry width="30" height="30" as="geometry">
            <mxRectangle width="30" height="30" as="alternateBounds" />
          </mxGeometry>
        </mxCell>
        <mxCell id="5gc-EdMEgWUK1N-vsXEk-331" value="Сотрудник" style="shape=partialRectangle;connectable=0;fillColor=none;top=0;left=0;bottom=0;right=0;align=left;spacingLeft=6;overflow=hidden;whiteSpace=wrap;html=1;" vertex="1" parent="5gc-EdMEgWUK1N-vsXEk-329">
          <mxGeometry x="30" width="150" height="30" as="geometry">
            <mxRectangle width="150" height="30" as="alternateBounds" />
          </mxGeometry>
        </mxCell>
        <mxCell id="5gc-EdMEgWUK1N-vsXEk-332" value="" style="shape=tableRow;horizontal=0;startSize=0;swimlaneHead=0;swimlaneBody=0;fillColor=none;collapsible=0;dropTarget=0;points=[[0,0.5],[1,0.5]];portConstraint=eastwest;top=0;left=0;right=0;bottom=0;" vertex="1" parent="5gc-EdMEgWUK1N-vsXEk-322">
          <mxGeometry y="120" width="180" height="30" as="geometry" />
        </mxCell>
        <mxCell id="5gc-EdMEgWUK1N-vsXEk-333" value="FK" style="shape=partialRectangle;connectable=0;fillColor=none;top=0;left=0;bottom=0;right=0;editable=1;overflow=hidden;whiteSpace=wrap;html=1;" vertex="1" parent="5gc-EdMEgWUK1N-vsXEk-332">
          <mxGeometry width="30" height="30" as="geometry">
            <mxRectangle width="30" height="30" as="alternateBounds" />
          </mxGeometry>
        </mxCell>
        <mxCell id="5gc-EdMEgWUK1N-vsXEk-334" value="СтатусЗаказа" style="shape=partialRectangle;connectable=0;fillColor=none;top=0;left=0;bottom=0;right=0;align=left;spacingLeft=6;overflow=hidden;whiteSpace=wrap;html=1;" vertex="1" parent="5gc-EdMEgWUK1N-vsXEk-332">
          <mxGeometry x="30" width="150" height="30" as="geometry">
            <mxRectangle width="150" height="30" as="alternateBounds" />
          </mxGeometry>
        </mxCell>
        <mxCell id="5gc-EdMEgWUK1N-vsXEk-335" value="" style="shape=tableRow;horizontal=0;startSize=0;swimlaneHead=0;swimlaneBody=0;fillColor=none;collapsible=0;dropTarget=0;points=[[0,0.5],[1,0.5]];portConstraint=eastwest;top=0;left=0;right=0;bottom=0;" vertex="1" parent="5gc-EdMEgWUK1N-vsXEk-322">
          <mxGeometry y="150" width="180" height="30" as="geometry" />
        </mxCell>
        <mxCell id="5gc-EdMEgWUK1N-vsXEk-336" value="" style="shape=partialRectangle;connectable=0;fillColor=none;top=0;left=0;bottom=0;right=0;editable=1;overflow=hidden;" vertex="1" parent="5gc-EdMEgWUK1N-vsXEk-335">
          <mxGeometry width="30" height="30" as="geometry">
            <mxRectangle width="30" height="30" as="alternateBounds" />
          </mxGeometry>
        </mxCell>
        <mxCell id="5gc-EdMEgWUK1N-vsXEk-337" value="ОбщаяСумма" style="shape=partialRectangle;connectable=0;fillColor=none;top=0;left=0;bottom=0;right=0;align=left;spacingLeft=6;overflow=hidden;" vertex="1" parent="5gc-EdMEgWUK1N-vsXEk-335">
          <mxGeometry x="30" width="150" height="30" as="geometry">
            <mxRectangle width="150" height="30" as="alternateBounds" />
          </mxGeometry>
        </mxCell>
        <mxCell id="5gc-EdMEgWUK1N-vsXEk-338" value="" style="shape=tableRow;horizontal=0;startSize=0;swimlaneHead=0;swimlaneBody=0;fillColor=none;collapsible=0;dropTarget=0;points=[[0,0.5],[1,0.5]];portConstraint=eastwest;top=0;left=0;right=0;bottom=0;" vertex="1" parent="5gc-EdMEgWUK1N-vsXEk-322">
          <mxGeometry y="180" width="180" height="30" as="geometry" />
        </mxCell>
        <mxCell id="5gc-EdMEgWUK1N-vsXEk-339" value="FK" style="shape=partialRectangle;connectable=0;fillColor=none;top=0;left=0;bottom=0;right=0;editable=1;overflow=hidden;" vertex="1" parent="5gc-EdMEgWUK1N-vsXEk-338">
          <mxGeometry width="30" height="30" as="geometry">
            <mxRectangle width="30" height="30" as="alternateBounds" />
          </mxGeometry>
        </mxCell>
        <mxCell id="5gc-EdMEgWUK1N-vsXEk-340" value="Поставщик" style="shape=partialRectangle;connectable=0;fillColor=none;top=0;left=0;bottom=0;right=0;align=left;spacingLeft=6;overflow=hidden;" vertex="1" parent="5gc-EdMEgWUK1N-vsXEk-338">
          <mxGeometry x="30" width="150" height="30" as="geometry">
            <mxRectangle width="150" height="30" as="alternateBounds" />
          </mxGeometry>
        </mxCell>
        <mxCell id="5gc-EdMEgWUK1N-vsXEk-341" value="" style="shape=tableRow;horizontal=0;startSize=0;swimlaneHead=0;swimlaneBody=0;fillColor=#fff2cc;collapsible=0;dropTarget=0;points=[[0,0.5],[1,0.5]];portConstraint=eastwest;top=0;left=0;right=0;bottom=0;strokeColor=#d6b656;" vertex="1" parent="5gc-EdMEgWUK1N-vsXEk-322">
          <mxGeometry y="210" width="180" height="30" as="geometry" />
        </mxCell>
        <mxCell id="5gc-EdMEgWUK1N-vsXEk-342" value="" style="shape=partialRectangle;connectable=0;fillColor=none;top=0;left=0;bottom=0;right=0;editable=1;overflow=hidden;" vertex="1" parent="5gc-EdMEgWUK1N-vsXEk-341">
          <mxGeometry width="30" height="30" as="geometry">
            <mxRectangle width="30" height="30" as="alternateBounds" />
          </mxGeometry>
        </mxCell>
        <mxCell id="5gc-EdMEgWUK1N-vsXEk-343" value="ТабличнаяЧасть" style="shape=partialRectangle;connectable=0;fillColor=none;top=0;left=0;bottom=0;right=0;align=left;spacingLeft=6;overflow=hidden;" vertex="1" parent="5gc-EdMEgWUK1N-vsXEk-341">
          <mxGeometry x="30" width="150" height="30" as="geometry">
            <mxRectangle width="150" height="30" as="alternateBounds" />
          </mxGeometry>
        </mxCell>
        <mxCell id="5gc-EdMEgWUK1N-vsXEk-344" value="" style="shape=tableRow;horizontal=0;startSize=0;swimlaneHead=0;swimlaneBody=0;fillColor=none;collapsible=0;dropTarget=0;points=[[0,0.5],[1,0.5]];portConstraint=eastwest;top=0;left=0;right=0;bottom=0;" vertex="1" parent="5gc-EdMEgWUK1N-vsXEk-322">
          <mxGeometry y="240" width="180" height="20" as="geometry" />
        </mxCell>
        <mxCell id="5gc-EdMEgWUK1N-vsXEk-345" value="FK" style="shape=partialRectangle;connectable=0;fillColor=none;top=0;left=0;bottom=0;right=0;editable=1;overflow=hidden;" vertex="1" parent="5gc-EdMEgWUK1N-vsXEk-344">
          <mxGeometry width="30" height="20" as="geometry">
            <mxRectangle width="30" height="20" as="alternateBounds" />
          </mxGeometry>
        </mxCell>
        <mxCell id="5gc-EdMEgWUK1N-vsXEk-346" value="Комплектующие" style="shape=partialRectangle;connectable=0;fillColor=none;top=0;left=0;bottom=0;right=0;align=left;spacingLeft=6;overflow=hidden;" vertex="1" parent="5gc-EdMEgWUK1N-vsXEk-344">
          <mxGeometry x="30" width="150" height="20" as="geometry">
            <mxRectangle width="150" height="20" as="alternateBounds" />
          </mxGeometry>
        </mxCell>
        <mxCell id="5gc-EdMEgWUK1N-vsXEk-347" value="" style="shape=tableRow;horizontal=0;startSize=0;swimlaneHead=0;swimlaneBody=0;fillColor=none;collapsible=0;dropTarget=0;points=[[0,0.5],[1,0.5]];portConstraint=eastwest;top=0;left=0;right=0;bottom=0;" vertex="1" parent="5gc-EdMEgWUK1N-vsXEk-322">
          <mxGeometry y="260" width="180" height="30" as="geometry" />
        </mxCell>
        <mxCell id="5gc-EdMEgWUK1N-vsXEk-348" value="" style="shape=partialRectangle;connectable=0;fillColor=none;top=0;left=0;bottom=0;right=0;editable=1;overflow=hidden;" vertex="1" parent="5gc-EdMEgWUK1N-vsXEk-347">
          <mxGeometry width="30" height="30" as="geometry">
            <mxRectangle width="30" height="30" as="alternateBounds" />
          </mxGeometry>
        </mxCell>
        <mxCell id="5gc-EdMEgWUK1N-vsXEk-349" value="Количество" style="shape=partialRectangle;connectable=0;fillColor=none;top=0;left=0;bottom=0;right=0;align=left;spacingLeft=6;overflow=hidden;" vertex="1" parent="5gc-EdMEgWUK1N-vsXEk-347">
          <mxGeometry x="30" width="150" height="30" as="geometry">
            <mxRectangle width="150" height="30" as="alternateBounds" />
          </mxGeometry>
        </mxCell>
        <mxCell id="5gc-EdMEgWUK1N-vsXEk-350" value="" style="shape=tableRow;horizontal=0;startSize=0;swimlaneHead=0;swimlaneBody=0;fillColor=none;collapsible=0;dropTarget=0;points=[[0,0.5],[1,0.5]];portConstraint=eastwest;top=0;left=0;right=0;bottom=0;" vertex="1" parent="5gc-EdMEgWUK1N-vsXEk-322">
          <mxGeometry y="290" width="180" height="30" as="geometry" />
        </mxCell>
        <mxCell id="5gc-EdMEgWUK1N-vsXEk-351" value="" style="shape=partialRectangle;connectable=0;fillColor=none;top=0;left=0;bottom=0;right=0;editable=1;overflow=hidden;" vertex="1" parent="5gc-EdMEgWUK1N-vsXEk-350">
          <mxGeometry width="30" height="30" as="geometry">
            <mxRectangle width="30" height="30" as="alternateBounds" />
          </mxGeometry>
        </mxCell>
        <mxCell id="5gc-EdMEgWUK1N-vsXEk-352" value="Цена" style="shape=partialRectangle;connectable=0;fillColor=none;top=0;left=0;bottom=0;right=0;align=left;spacingLeft=6;overflow=hidden;" vertex="1" parent="5gc-EdMEgWUK1N-vsXEk-350">
          <mxGeometry x="30" width="150" height="30" as="geometry">
            <mxRectangle width="150" height="30" as="alternateBounds" />
          </mxGeometry>
        </mxCell>
        <mxCell id="5gc-EdMEgWUK1N-vsXEk-353" value="" style="shape=tableRow;horizontal=0;startSize=0;swimlaneHead=0;swimlaneBody=0;fillColor=none;collapsible=0;dropTarget=0;points=[[0,0.5],[1,0.5]];portConstraint=eastwest;top=0;left=0;right=0;bottom=0;" vertex="1" parent="5gc-EdMEgWUK1N-vsXEk-322">
          <mxGeometry y="320" width="180" height="30" as="geometry" />
        </mxCell>
        <mxCell id="5gc-EdMEgWUK1N-vsXEk-354" value="" style="shape=partialRectangle;connectable=0;fillColor=none;top=0;left=0;bottom=0;right=0;editable=1;overflow=hidden;" vertex="1" parent="5gc-EdMEgWUK1N-vsXEk-353">
          <mxGeometry width="30" height="30" as="geometry">
            <mxRectangle width="30" height="30" as="alternateBounds" />
          </mxGeometry>
        </mxCell>
        <mxCell id="5gc-EdMEgWUK1N-vsXEk-355" value="Сумма" style="shape=partialRectangle;connectable=0;fillColor=none;top=0;left=0;bottom=0;right=0;align=left;spacingLeft=6;overflow=hidden;" vertex="1" parent="5gc-EdMEgWUK1N-vsXEk-353">
          <mxGeometry x="30" width="150" height="30" as="geometry">
            <mxRectangle width="150" height="30" as="alternateBounds" />
          </mxGeometry>
        </mxCell>
        <mxCell id="5gc-EdMEgWUK1N-vsXEk-356" value="РегистрЦенПоКомплектующим" style="shape=table;startSize=30;container=1;collapsible=1;childLayout=tableLayout;fixedRows=1;rowLines=0;fontStyle=1;align=center;resizeLast=1;html=1;fillColor=#f8cecc;strokeColor=#b85450;" vertex="1" parent="1">
          <mxGeometry x="1600" y="1260" width="220" height="150" as="geometry" />
        </mxCell>
        <mxCell id="5gc-EdMEgWUK1N-vsXEk-357" value="" style="shape=tableRow;horizontal=0;startSize=0;swimlaneHead=0;swimlaneBody=0;fillColor=none;collapsible=0;dropTarget=0;points=[[0,0.5],[1,0.5]];portConstraint=eastwest;top=0;left=0;right=0;bottom=1;" vertex="1" parent="5gc-EdMEgWUK1N-vsXEk-356">
          <mxGeometry y="30" width="220" height="30" as="geometry" />
        </mxCell>
        <mxCell id="5gc-EdMEgWUK1N-vsXEk-358" value="PK" style="shape=partialRectangle;connectable=0;fillColor=none;top=0;left=0;bottom=0;right=0;fontStyle=1;overflow=hidden;whiteSpace=wrap;html=1;" vertex="1" parent="5gc-EdMEgWUK1N-vsXEk-357">
          <mxGeometry width="30" height="30" as="geometry">
            <mxRectangle width="30" height="30" as="alternateBounds" />
          </mxGeometry>
        </mxCell>
        <mxCell id="5gc-EdMEgWUK1N-vsXEk-359" value="Ссылка" style="shape=partialRectangle;connectable=0;fillColor=none;top=0;left=0;bottom=0;right=0;align=left;spacingLeft=6;fontStyle=5;overflow=hidden;whiteSpace=wrap;html=1;" vertex="1" parent="5gc-EdMEgWUK1N-vsXEk-357">
          <mxGeometry x="30" width="190" height="30" as="geometry">
            <mxRectangle width="190" height="30" as="alternateBounds" />
          </mxGeometry>
        </mxCell>
        <mxCell id="5gc-EdMEgWUK1N-vsXEk-360" value="" style="shape=tableRow;horizontal=0;startSize=0;swimlaneHead=0;swimlaneBody=0;fillColor=none;collapsible=0;dropTarget=0;points=[[0,0.5],[1,0.5]];portConstraint=eastwest;top=0;left=0;right=0;bottom=0;" vertex="1" parent="5gc-EdMEgWUK1N-vsXEk-356">
          <mxGeometry y="60" width="220" height="30" as="geometry" />
        </mxCell>
        <mxCell id="5gc-EdMEgWUK1N-vsXEk-361" value="FK" style="shape=partialRectangle;connectable=0;fillColor=none;top=0;left=0;bottom=0;right=0;editable=1;overflow=hidden;whiteSpace=wrap;html=1;" vertex="1" parent="5gc-EdMEgWUK1N-vsXEk-360">
          <mxGeometry width="30" height="30" as="geometry">
            <mxRectangle width="30" height="30" as="alternateBounds" />
          </mxGeometry>
        </mxCell>
        <mxCell id="5gc-EdMEgWUK1N-vsXEk-362" value="Запчасти" style="shape=partialRectangle;connectable=0;fillColor=none;top=0;left=0;bottom=0;right=0;align=left;spacingLeft=6;overflow=hidden;whiteSpace=wrap;html=1;" vertex="1" parent="5gc-EdMEgWUK1N-vsXEk-360">
          <mxGeometry x="30" width="190" height="30" as="geometry">
            <mxRectangle width="190" height="30" as="alternateBounds" />
          </mxGeometry>
        </mxCell>
        <mxCell id="5gc-EdMEgWUK1N-vsXEk-363" value="" style="shape=tableRow;horizontal=0;startSize=0;swimlaneHead=0;swimlaneBody=0;fillColor=none;collapsible=0;dropTarget=0;points=[[0,0.5],[1,0.5]];portConstraint=eastwest;top=0;left=0;right=0;bottom=0;" vertex="1" parent="5gc-EdMEgWUK1N-vsXEk-356">
          <mxGeometry y="90" width="220" height="30" as="geometry" />
        </mxCell>
        <mxCell id="5gc-EdMEgWUK1N-vsXEk-364" value="FK" style="shape=partialRectangle;connectable=0;fillColor=none;top=0;left=0;bottom=0;right=0;editable=1;overflow=hidden;whiteSpace=wrap;html=1;" vertex="1" parent="5gc-EdMEgWUK1N-vsXEk-363">
          <mxGeometry width="30" height="30" as="geometry">
            <mxRectangle width="30" height="30" as="alternateBounds" />
          </mxGeometry>
        </mxCell>
        <mxCell id="5gc-EdMEgWUK1N-vsXEk-365" value="Поставщик" style="shape=partialRectangle;connectable=0;fillColor=none;top=0;left=0;bottom=0;right=0;align=left;spacingLeft=6;overflow=hidden;whiteSpace=wrap;html=1;" vertex="1" parent="5gc-EdMEgWUK1N-vsXEk-363">
          <mxGeometry x="30" width="190" height="30" as="geometry">
            <mxRectangle width="190" height="30" as="alternateBounds" />
          </mxGeometry>
        </mxCell>
        <mxCell id="5gc-EdMEgWUK1N-vsXEk-366" value="" style="shape=tableRow;horizontal=0;startSize=0;swimlaneHead=0;swimlaneBody=0;fillColor=none;collapsible=0;dropTarget=0;points=[[0,0.5],[1,0.5]];portConstraint=eastwest;top=0;left=0;right=0;bottom=0;" vertex="1" parent="5gc-EdMEgWUK1N-vsXEk-356">
          <mxGeometry y="120" width="220" height="30" as="geometry" />
        </mxCell>
        <mxCell id="5gc-EdMEgWUK1N-vsXEk-367" value="" style="shape=partialRectangle;connectable=0;fillColor=none;top=0;left=0;bottom=0;right=0;editable=1;overflow=hidden;whiteSpace=wrap;html=1;" vertex="1" parent="5gc-EdMEgWUK1N-vsXEk-366">
          <mxGeometry width="30" height="30" as="geometry">
            <mxRectangle width="30" height="30" as="alternateBounds" />
          </mxGeometry>
        </mxCell>
        <mxCell id="5gc-EdMEgWUK1N-vsXEk-368" value="Цена" style="shape=partialRectangle;connectable=0;fillColor=none;top=0;left=0;bottom=0;right=0;align=left;spacingLeft=6;overflow=hidden;whiteSpace=wrap;html=1;" vertex="1" parent="5gc-EdMEgWUK1N-vsXEk-366">
          <mxGeometry x="30" width="190" height="30" as="geometry">
            <mxRectangle width="190" height="30" as="alternateBounds" />
          </mxGeometry>
        </mxCell>
        <mxCell id="5gc-EdMEgWUK1N-vsXEk-369" value="" style="edgeStyle=orthogonalEdgeStyle;fontSize=12;html=1;endArrow=ERoneToMany;rounded=0;exitX=0;exitY=0.5;exitDx=0;exitDy=0;entryX=0;entryY=0.5;entryDx=0;entryDy=0;" edge="1" parent="1" source="5gc-EdMEgWUK1N-vsXEk-55" target="5gc-EdMEgWUK1N-vsXEk-344">
          <mxGeometry width="100" height="100" relative="1" as="geometry">
            <mxPoint x="1530" y="1110" as="sourcePoint" />
            <mxPoint x="1630" y="1010" as="targetPoint" />
          </mxGeometry>
        </mxCell>
        <mxCell id="5gc-EdMEgWUK1N-vsXEk-370" style="edgeStyle=orthogonalEdgeStyle;rounded=0;orthogonalLoop=1;jettySize=auto;html=1;exitX=1;exitY=0.5;exitDx=0;exitDy=0;" edge="1" parent="1" source="5gc-EdMEgWUK1N-vsXEk-2" target="5gc-EdMEgWUK1N-vsXEk-89">
          <mxGeometry relative="1" as="geometry" />
        </mxCell>
        <mxCell id="5gc-EdMEgWUK1N-vsXEk-371" style="edgeStyle=orthogonalEdgeStyle;rounded=0;orthogonalLoop=1;jettySize=auto;html=1;exitX=1;exitY=0.5;exitDx=0;exitDy=0;entryX=0;entryY=0.5;entryDx=0;entryDy=0;" edge="1" parent="1" source="5gc-EdMEgWUK1N-vsXEk-48" target="5gc-EdMEgWUK1N-vsXEk-311">
          <mxGeometry relative="1" as="geometry" />
        </mxCell>
        <mxCell id="5gc-EdMEgWUK1N-vsXEk-372" value="Приоритет" style="shape=table;startSize=30;container=1;collapsible=1;childLayout=tableLayout;fixedRows=1;rowLines=0;fontStyle=1;align=center;resizeLast=1;html=1;fillColor=#f8cecc;strokeColor=#b85450;" vertex="1" parent="1">
          <mxGeometry x="390" y="1250" width="180" height="90" as="geometry" />
        </mxCell>
        <mxCell id="5gc-EdMEgWUK1N-vsXEk-373" value="" style="shape=tableRow;horizontal=0;startSize=0;swimlaneHead=0;swimlaneBody=0;fillColor=none;collapsible=0;dropTarget=0;points=[[0,0.5],[1,0.5]];portConstraint=eastwest;top=0;left=0;right=0;bottom=1;" vertex="1" parent="5gc-EdMEgWUK1N-vsXEk-372">
          <mxGeometry y="30" width="180" height="30" as="geometry" />
        </mxCell>
        <mxCell id="5gc-EdMEgWUK1N-vsXEk-374" value="PK" style="shape=partialRectangle;connectable=0;fillColor=none;top=0;left=0;bottom=0;right=0;fontStyle=1;overflow=hidden;whiteSpace=wrap;html=1;" vertex="1" parent="5gc-EdMEgWUK1N-vsXEk-373">
          <mxGeometry width="30" height="30" as="geometry">
            <mxRectangle width="30" height="30" as="alternateBounds" />
          </mxGeometry>
        </mxCell>
        <mxCell id="5gc-EdMEgWUK1N-vsXEk-375" value="Код" style="shape=partialRectangle;connectable=0;fillColor=none;top=0;left=0;bottom=0;right=0;align=left;spacingLeft=6;fontStyle=5;overflow=hidden;whiteSpace=wrap;html=1;" vertex="1" parent="5gc-EdMEgWUK1N-vsXEk-373">
          <mxGeometry x="30" width="150" height="30" as="geometry">
            <mxRectangle width="150" height="30" as="alternateBounds" />
          </mxGeometry>
        </mxCell>
        <mxCell id="5gc-EdMEgWUK1N-vsXEk-376" value="" style="shape=tableRow;horizontal=0;startSize=0;swimlaneHead=0;swimlaneBody=0;fillColor=none;collapsible=0;dropTarget=0;points=[[0,0.5],[1,0.5]];portConstraint=eastwest;top=0;left=0;right=0;bottom=0;" vertex="1" parent="5gc-EdMEgWUK1N-vsXEk-372">
          <mxGeometry y="60" width="180" height="30" as="geometry" />
        </mxCell>
        <mxCell id="5gc-EdMEgWUK1N-vsXEk-377" value="" style="shape=partialRectangle;connectable=0;fillColor=none;top=0;left=0;bottom=0;right=0;editable=1;overflow=hidden;whiteSpace=wrap;html=1;" vertex="1" parent="5gc-EdMEgWUK1N-vsXEk-376">
          <mxGeometry width="30" height="30" as="geometry">
            <mxRectangle width="30" height="30" as="alternateBounds" />
          </mxGeometry>
        </mxCell>
        <mxCell id="5gc-EdMEgWUK1N-vsXEk-378" value="Наименование" style="shape=partialRectangle;connectable=0;fillColor=none;top=0;left=0;bottom=0;right=0;align=left;spacingLeft=6;overflow=hidden;whiteSpace=wrap;html=1;" vertex="1" parent="5gc-EdMEgWUK1N-vsXEk-376">
          <mxGeometry x="30" width="150" height="30" as="geometry">
            <mxRectangle width="150" height="30" as="alternateBounds" />
          </mxGeometry>
        </mxCell>
        <mxCell id="5gc-EdMEgWUK1N-vsXEk-379" style="edgeStyle=orthogonalEdgeStyle;rounded=0;orthogonalLoop=1;jettySize=auto;html=1;exitX=1;exitY=0.5;exitDx=0;exitDy=0;entryX=0;entryY=0.5;entryDx=0;entryDy=0;" edge="1" parent="1" source="5gc-EdMEgWUK1N-vsXEk-373" target="5gc-EdMEgWUK1N-vsXEk-176">
          <mxGeometry relative="1" as="geometry" />
        </mxCell>
        <mxCell id="Sg8ZJet8d3fQl9INgD9I-4" value="" style="edgeStyle=orthogonalEdgeStyle;fontSize=12;html=1;endArrow=ERone;startArrow=ERone;rounded=0;exitX=1;exitY=0.5;exitDx=0;exitDy=0;startFill=0;endFill=0;" edge="1" parent="1" source="5gc-EdMEgWUK1N-vsXEk-357" target="5gc-EdMEgWUK1N-vsXEk-55">
          <mxGeometry width="100" height="100" relative="1" as="geometry">
            <mxPoint x="1870" y="1525" as="sourcePoint" />
            <mxPoint x="2010" y="1575" as="targetPoint" />
          </mxGeometry>
        </mxCell>
        <mxCell id="Sg8ZJet8d3fQl9INgD9I-5" value="" style="edgeStyle=orthogonalEdgeStyle;fontSize=12;html=1;endArrow=ERoneToMany;rounded=0;exitX=0;exitY=0.5;exitDx=0;exitDy=0;entryX=1;entryY=0.5;entryDx=0;entryDy=0;" edge="1" parent="1" source="5gc-EdMEgWUK1N-vsXEk-35" target="5gc-EdMEgWUK1N-vsXEk-338">
          <mxGeometry width="100" height="100" relative="1" as="geometry">
            <mxPoint x="1610" y="1095" as="sourcePoint" />
            <mxPoint x="1630" y="870" as="targetPoint" />
          </mxGeometry>
        </mxCell>
      </root>
    </mxGraphModel>
  </diagram>
</mxfile>
